<svg xmlns="http://www.w3.org/2000/svg" width="12cm" height="8.42cm" viewBox="0 0 340.16 238.56"><title>GonnaOrder_Small_Logo</title><path d="M331.69,178.36l.17,0c-.78,0-1.54,0-2.32,0a79.15,79.15,0,0,0-21,2.86,81.53,81.53,0,0,0-19.47,8.18c-22,13.22-36,37.43-36,66.92,0,43.68,32.76,77.82,76.44,77.82.67,0,1.32,0,2-.05a77.27,77.27,0,0,0,38.81-11V339c0,24.32-16.45,42.92-40.77,42.92s-40.76-17.16-40.76-41.48H250.87c0,47.2,31.46,76.53,78.67,76.53,42.93,0,80.11-31.47,80.11-78V271.33h0v-93ZM329.54,297.1c-22.89,0-40.05-17.89-40.05-40.78,0-23.59,17.16-40.76,40.05-40.76,23.61,0,40.06,17.17,40.06,40.76C369.6,279.21,353.15,297.1,329.54,297.1Z" transform="translate(-250.87 -178.36)" fill="#273773"/><path d="M591,256.16c0-45-32-77.8-77.82-77.8-44.45,0-77.79,32.76-77.79,77.8,0,43.68,33.34,77.82,77.79,77.82C559.06,334,591,299.84,591,256.16Z" transform="translate(-250.87 -178.36)" fill="#48b9b7"/></svg>