<?xml version="1.0" encoding="utf-8"?>
<!-- Generator: Adobe Illustrator 22.0.1, SVG Export Plug-In . SVG Version: 6.00 Build 0)  -->
<svg version="1.1" id="Layer_1" xmlns="http://www.w3.org/2000/svg" xmlns:xlink="http://www.w3.org/1999/xlink" x="0px" y="0px"
	 width="990px" height="180.7px" viewBox="0 0 990 180.7" enable-background="new 0 0 990 180.7" xml:space="preserve">
<g>
	<g>
		<linearGradient id="SVGID_1_" gradientUnits="userSpaceOnUse" x1="0.5704" y1="109.6857" x2="93.0242" y2="17.2319">
			<stop  offset="0" style="stop-color:#ED0E6B"/>
			<stop  offset="0.5" style="stop-color:#EF4050"/>
			<stop  offset="1" style="stop-color:#F7941D"/>
		</linearGradient>
		<path fill="url(#SVGID_1_)" d="M108.2,56.1c0.1,9.6-2.3,19.1-6.9,27.5c-9.1,16.5-26.9,26.7-45.8,26.5H39.2V90.5h16.3
			c12.1,0.1,23-6.2,28.8-16.8c3-5.4,4.5-11.5,4.4-17.6c0.1-6.2-1.5-12.3-4.6-17.7c-2.9-5.2-7.2-9.5-12.4-12.5
			c-5.4-3.1-11.5-4.6-17.7-4.5c-6.2-0.1-12.3,1.5-17.6,4.5c-5.2,3-9.5,7.3-12.4,12.6c-3.1,5.4-4.6,11.5-4.5,17.7v14.1l0,0V110H0V56
			c0-9.4,2.3-19.1,7.1-27.5c4.6-8.2,11.3-14.9,19.5-19.5c8.4-4.8,17.9-7.2,27.5-7.1C63.7,1.7,73.2,4.2,81.6,9
			c8.1,4.6,14.9,11.4,19.5,19.5C105.8,36.9,108.3,46.4,108.2,56.1z"/>
		<linearGradient id="SVGID_2_" gradientUnits="userSpaceOnUse" x1="0.4979" y1="109.6132" x2="92.9517" y2="17.1594">
			<stop  offset="0" style="stop-color:#ED0E6B"/>
			<stop  offset="0.5" style="stop-color:#EF4050"/>
			<stop  offset="1" style="stop-color:#F7941D"/>
		</linearGradient>
		<path fill="url(#SVGID_2_)" d="M39.2,56v14.9h15.4c5.2,0.1,10-2.7,12.5-7.3c1.3-2.3,1.9-4.9,1.9-7.6c0-2.7-0.6-5.3-2-7.6
			c-1.3-2.2-3.1-4.1-5.4-5.4c-4.7-2.6-10.5-2.6-15.2,0c-2.2,1.3-4.1,3.1-5.4,5.4C39.8,50.7,39.1,53.3,39.2,56z"/>
	</g>
	<g>
		<path fill="#000" d="M485.8,132c2.7,1.5,5,3.8,6.5,6.5c3.1,5.7,3.1,12.7,0,18.4c-1.5,2.7-3.8,5-6.5,6.5
			c-5.7,3.1-12.6,3.1-18.3,0.1c-2.7-1.5-5-3.7-6.5-6.4c-1.6-2.7-2.4-5.9-2.5-9v-31.2c0-0.5,0.2-1,0.6-1.4c0.4-0.4,0.9-0.5,1.4-0.5
			c1-0.1,1.9,0.7,1.9,1.6c0,0.1,0,0.2,0,0.3V137c1.4-2.3,3.4-4.2,5.8-5.4c2.6-1.3,5.4-2,8.3-2C479.7,129.6,482.9,130.4,485.8,132z
			 M483.8,160.2c2.1-1.2,3.9-3,5.1-5.2c2.5-4.6,2.5-10.1,0-14.7c-1.2-2.2-3-3.9-5.1-5.2c-4.5-2.5-10-2.5-14.5,0
			c-2.1,1.2-3.9,3-5.1,5.2c-2.4,4.6-2.4,10.1,0,14.7c1.2,2.2,2.9,4,5.1,5.2C473.8,162.7,479.3,162.7,483.8,160.2z"/>
		<path fill="#000" d="M526.1,131.9c2.5,1.5,4.5,3.6,5.8,6.2c1.4,2.8,2.1,5.9,2.1,9c0,0.5-0.2,1-0.5,1.3
			c-0.4,0.3-0.9,0.5-1.4,0.5h-27c0.1,2.4,0.8,4.7,2,6.8c1.2,2,2.8,3.6,4.8,4.7c2.1,1.1,4.4,1.7,6.8,1.7c1.7,0,3.4-0.3,5.1-0.9
			c1.5-0.5,2.9-1.2,4-2.3c0.4-0.3,0.9-0.5,1.4-0.5c0.9-0.1,1.8,0.6,1.9,1.5c0.1,0.5-0.2,1.1-0.6,1.5c-1.6,1.4-3.4,2.4-5.4,3.1
			c-2,0.8-4.2,1.2-6.4,1.2c-3.2,0.1-6.3-0.7-9.1-2.3c-2.6-1.5-4.8-3.7-6.2-6.4c-1.5-2.8-2.3-6-2.3-9.3c-0.1-3.2,0.7-6.4,2.1-9.3
			c1.3-2.6,3.4-4.9,5.9-6.4c2.6-1.5,5.6-2.3,8.6-2.3C520.6,129.7,523.5,130.4,526.1,131.9z M509.2,136.7c-2.4,2.4-3.8,5.5-4.1,8.8
			h25.1c-0.2-3.3-1.5-6.5-3.9-8.8c-2.3-2.2-5.4-3.5-8.6-3.4C514.5,133.2,511.4,134.5,509.2,136.7z"/>
		<path fill="#000" d="M570.3,131.6c0,0.3-0.1,0.6-0.3,0.9l-21.7,47c-0.4,0.8-0.9,1.2-1.5,1.2c-0.3,0-0.6-0.1-0.9-0.2
			c-0.8-0.3-1.2-0.8-1.2-1.5c0-0.3,0.1-0.6,0.3-0.9l6.5-13.9c-0.1-0.1-0.2-0.3-0.3-0.4l-14.1-31c-0.2-0.3-0.3-0.7-0.3-1
			c0-0.7,0.5-1.3,1.1-1.5c0.3-0.2,0.7-0.2,1-0.3c0.7,0,1.3,0.5,1.5,1.1l13.1,28.6l13.2-28.6c0.4-0.8,0.9-1.2,1.5-1.2
			c0.3,0,0.6,0.1,0.9,0.2C569.9,130.4,570.3,130.9,570.3,131.6z"/>
		<path fill="#000" d="M581.1,163.4c-2.7-1.5-5-3.8-6.5-6.5c-3.1-5.7-3.1-12.7,0-18.4c1.5-2.7,3.8-5,6.5-6.5
			c5.7-3.1,12.7-3.1,18.4,0c2.7,1.5,5,3.8,6.5,6.5c3.1,5.7,3.1,12.7,0,18.4c-1.5,2.7-3.8,5-6.5,6.5
			C593.7,166.5,586.8,166.5,581.1,163.4z M597.5,160.2c2.1-1.2,3.9-3,5.1-5.2c2.4-4.6,2.4-10.1,0-14.7c-1.2-2.2-2.9-4-5.1-5.2
			c-6.7-4-15.4-1.8-19.4,4.9c0,0.1-0.1,0.2-0.1,0.2c-2.5,4.6-2.5,10.1,0,14.7c1.2,2.2,3,3.9,5.1,5.2
			C587.5,162.7,593,162.7,597.5,160.2L597.5,160.2z"/>
		<path fill="#000" d="M641.3,131.5c2.5,1.3,4.5,3.2,5.8,5.6c1.5,2.7,2.2,5.8,2.1,8.9v17.4c0,0.5-0.2,1-0.6,1.4
			c-0.8,0.7-2,0.7-2.8,0c-0.4-0.4-0.6-0.9-0.6-1.4V146c0-4.1-1.2-7.2-3.5-9.3c-2.5-2.2-5.7-3.4-9-3.2c-2.1,0-4.3,0.4-6.2,1.3
			c-1.8,0.8-3.3,2.1-4.4,3.7c-1.1,1.5-1.6,3.3-1.6,5.2v19.8c0,0.5-0.2,1-0.5,1.4c-0.4,0.4-0.9,0.6-1.4,0.5c-0.5,0-1-0.2-1.4-0.5
			c-0.4-0.4-0.6-0.9-0.6-1.4V132c0-0.5,0.2-1,0.6-1.4c0.4-0.4,0.9-0.5,1.4-0.5c0.5,0,1,0.2,1.4,0.5c0.4,0.4,0.5,0.9,0.5,1.4v3.4
			c1.4-1.8,3.3-3.2,5.4-4.2c2.2-1,4.5-1.5,6.9-1.5C635.7,129.5,638.6,130.2,641.3,131.5z"/>
		<path fill="#000" d="M692.5,115.5c0.4,0.4,0.5,0.9,0.5,1.4V148c0,3.2-0.9,6.3-2.5,9c-1.6,2.7-3.8,4.9-6.5,6.4
			c-5.7,3.1-12.6,3.1-18.3-0.1c-2.7-1.5-5-3.8-6.5-6.5c-3.1-5.7-3.1-12.7,0-18.4c1.5-2.7,3.8-5,6.5-6.5c2.8-1.6,6-2.4,9.2-2.4
			c2.9,0,5.7,0.6,8.3,2c2.4,1.2,4.4,3.1,5.8,5.4v-20.1c0-0.5,0.2-1,0.5-1.4c0.4-0.3,0.9-0.5,1.4-0.5
			C691.5,114.9,692.1,115.1,692.5,115.5z M682.2,160.2c2.1-1.2,3.9-3,5.1-5.2c2.5-4.6,2.5-10.1,0-14.7c-1.2-2.2-2.9-3.9-5.1-5.2
			c-4.5-2.5-10-2.5-14.5,0c-2.1,1.2-3.9,3-5.1,5.2c-2.5,4.6-2.5,10.1,0,14.7c1.2,2.2,3,3.9,5.1,5.2
			C672.2,162.8,677.7,162.8,682.2,160.2z"/>
		<path fill="#000" d="M727.8,163.4c-2.7-1.5-5-3.8-6.5-6.5c-3.1-5.7-3.1-12.7,0-18.4c1.5-2.7,3.8-5,6.5-6.5
			c5.7-3.1,12.7-3.1,18.4,0c2.7,1.5,5,3.8,6.5,6.5c3.1,5.7,3.1,12.7,0,18.4c-1.5,2.7-3.8,5-6.5,6.5
			C740.5,166.5,733.5,166.5,727.8,163.4z M744.3,160.2c2.1-1.2,3.9-3,5.1-5.2c2.4-4.6,2.4-10.1,0-14.7c-1.2-2.2-2.9-4-5.1-5.2
			c-6.7-4-15.4-1.8-19.4,4.9c0,0.1-0.1,0.2-0.1,0.2c-2.5,4.6-2.5,10.1,0,14.7c1.2,2.2,3,3.9,5.1,5.2
			C734.3,162.7,739.8,162.7,744.3,160.2L744.3,160.2z"/>
		<path fill="#000" d="M783.3,131.8c0,0.2,0,0.4-0.1,0.5c-0.1,0.4-0.3,0.7-0.6,1c-0.3,0.2-0.7,0.3-1.1,0.3c-0.5,0-1-0.1-1.5-0.1
			c-0.5-0.1-1.1-0.1-1.6-0.1c-2,0-4,0.4-5.7,1.4c-1.6,0.9-3,2.2-3.9,3.7c-1,1.6-1.4,3.5-1.4,5.4v19.6c0,0.5-0.2,1-0.5,1.4
			c-0.8,0.8-2,0.8-2.8,0c-0.4-0.4-0.6-0.9-0.6-1.4v-31.4c0-0.5,0.2-1,0.6-1.4c0.8-0.7,2-0.7,2.8,0c0.4,0.4,0.5,0.9,0.5,1.4v4
			c1.2-1.9,2.8-3.5,4.8-4.7c1.9-1.1,4.1-1.7,6.3-1.7C781.7,129.6,783.3,130.3,783.3,131.8z"/>
		<path fill="#000" d="M821.5,115.5c0.4,0.4,0.5,0.9,0.5,1.4V148c0,3.2-0.9,6.3-2.5,9c-1.5,2.7-3.8,4.9-6.5,6.4
			c-5.7,3.1-12.6,3.1-18.3-0.1c-2.7-1.5-5-3.8-6.5-6.5c-3.1-5.7-3.1-12.7,0-18.4c1.5-2.7,3.8-5,6.5-6.5c2.8-1.6,6-2.4,9.2-2.4
			c2.9,0,5.7,0.6,8.3,2c2.4,1.2,4.4,3.1,5.8,5.4v-20.1c0-0.5,0.2-1,0.6-1.4C819.5,114.8,820.6,114.8,821.5,115.5L821.5,115.5z
			 M811.2,160.2c2.1-1.2,3.9-3,5.1-5.2c2.4-4.6,2.4-10.1,0-14.7c-1.2-2.2-2.9-3.9-5.1-5.2c-4.5-2.5-10-2.5-14.5,0
			c-2.1,1.2-3.9,3-5.1,5.2c-2.5,4.6-2.5,10.1,0,14.7C795.6,161.8,804.4,164.2,811.2,160.2L811.2,160.2z"/>
		<path fill="#000" d="M833.3,121.7c-0.6-0.6-0.9-1.4-0.8-2.2c0-0.8,0.3-1.6,0.9-2.2c0.6-0.5,1.3-0.8,2.1-0.8
			c0.8,0,1.5,0.3,2.1,0.8c0.6,0.6,0.9,1.4,0.9,2.2c0,1.6-1.3,3-2.9,3c0,0-0.1,0-0.1,0C834.7,122.7,833.9,122.3,833.3,121.7z
			 M834.1,164.8c-0.4-0.4-0.6-0.9-0.5-1.4V132c0-0.5,0.2-1,0.5-1.4c0.4-0.4,0.9-0.5,1.4-0.5c1-0.1,1.9,0.7,1.9,1.6
			c0,0.1,0,0.2,0,0.3v31.4c0,0.5-0.2,1-0.5,1.4c-0.4,0.4-0.9,0.6-1.4,0.5C835,165.4,834.5,165.2,834.1,164.8L834.1,164.8z"/>
		<path fill="#000" d="M873.6,131.5c2.5,1.3,4.5,3.2,5.8,5.6c1.5,2.7,2.2,5.8,2.1,8.9v17.4c0,0.5-0.2,1-0.6,1.4
			c-0.8,0.7-2,0.7-2.8,0c-0.4-0.4-0.6-0.9-0.6-1.4V146c0-4.1-1.2-7.2-3.5-9.3c-2.5-2.2-5.7-3.4-9-3.2c-2.1,0-4.3,0.4-6.2,1.3
			c-1.8,0.8-3.3,2.1-4.4,3.7c-1.1,1.5-1.6,3.3-1.6,5.2v19.8c0,0.5-0.2,1-0.5,1.4c-0.4,0.4-0.9,0.6-1.4,0.5c-0.5,0-1-0.2-1.4-0.5
			c-0.4-0.4-0.6-0.9-0.6-1.4V132c0-0.5,0.2-1,0.6-1.4c0.4-0.4,0.9-0.5,1.4-0.5c0.5,0,1,0.2,1.4,0.5c0.4,0.4,0.5,0.9,0.5,1.4v3.4
			c1.4-1.8,3.3-3.2,5.4-4.2c2.2-1,4.5-1.5,6.9-1.5C868.1,129.5,871,130.2,873.6,131.5z"/>
		<path fill="#000" d="M916.5,132c2.7,1.5,5,3.8,6.5,6.5c1.6,2.8,2.4,6,2.4,9.2v15.7c0,0.5-0.2,1-0.5,1.4c-0.8,0.8-2,0.8-2.8,0
			c-0.4-0.4-0.6-0.9-0.6-1.4v-5c-1.4,2.3-3.4,4.2-5.8,5.4c-2.6,1.3-5.4,2-8.3,2c-3.2,0-6.4-0.8-9.2-2.4c-2.7-1.5-5-3.8-6.5-6.5
			c-3.1-5.7-3.1-12.7,0-18.4c1.5-2.7,3.8-5,6.5-6.5C903.9,128.9,910.8,128.9,916.5,132L916.5,132z M914.6,160.2
			c2.1-1.2,3.9-3,5.1-5.2c2.4-4.6,2.4-10.1,0-14.7c-1.2-2.2-2.9-4-5.1-5.2c-6.7-4-15.4-1.8-19.4,4.9c-0.1,0.1-0.1,0.2-0.2,0.3
			c-2.5,4.6-2.5,10.1,0,14.7c1.2,2.1,3,3.9,5.1,5.2C904.6,162.7,910,162.7,914.6,160.2L914.6,160.2z"/>
		<path fill="#000" d="M953.6,131.8c0,0.2,0,0.4-0.1,0.5c-0.1,0.4-0.3,0.7-0.6,1c-0.3,0.2-0.7,0.3-1.1,0.3c-0.5,0-1-0.1-1.5-0.1
			c-0.5-0.1-1-0.1-1.6-0.1c-2,0-4,0.4-5.7,1.4c-1.6,0.9-3,2.1-3.9,3.7c-1,1.6-1.4,3.5-1.4,5.4v19.6c0,0.5-0.2,1-0.5,1.4
			c-0.4,0.4-0.9,0.6-1.4,0.5c-0.5,0-1-0.2-1.4-0.5c-0.4-0.4-0.6-0.9-0.6-1.4v-31.4c0-0.5,0.2-1,0.6-1.4c0.4-0.4,0.9-0.5,1.4-0.5
			c1-0.1,1.9,0.7,1.9,1.6c0,0.1,0,0.2,0,0.3v4c1.2-1.9,2.8-3.5,4.8-4.7c1.9-1.1,4.1-1.7,6.3-1.7C952,129.6,953.6,130.4,953.6,131.8z
			"/>
		<path fill="#000" d="M990,131.6c0,0.3-0.1,0.6-0.3,0.9l-21.7,47c-0.4,0.8-0.9,1.2-1.5,1.2c-0.3,0-0.6-0.1-0.9-0.2
			c-0.8-0.3-1.2-0.8-1.2-1.5c0-0.3,0.1-0.6,0.3-0.9l6.5-13.9c-0.1-0.1-0.2-0.3-0.3-0.4l-14.1-31c-0.2-0.3-0.3-0.7-0.3-1
			c0-0.7,0.5-1.3,1.1-1.5c0.3-0.2,0.7-0.2,1-0.3c0.7,0,1.3,0.5,1.5,1.1l13.1,28.6l13.2-28.6c0.4-0.8,0.9-1.2,1.5-1.2
			c0.3,0,0.6,0.1,0.9,0.2C989.6,130.4,990,130.9,990,131.6z"/>
		<path fill="#000" d="M676.1,87.8c-4.4-1.5-8.3-4-11.5-7.3c-0.7-0.8-1.2-1.8-1.2-2.9c0-1.5,0.8-2.9,2-3.7c0.9-0.7,2-1.1,3.1-1.1
			c1.4,0,2.7,0.6,3.6,1.7c2.1,2.4,4.9,4.3,7.9,5.4c3.5,1.3,7.2,1.9,10.9,1.9c5.8,0,10.2-1,13.1-3c2.7-1.7,4.4-4.6,4.5-7.9
			c0-3-1.5-5.5-4.4-7.5c-2.9-2-7.5-3.5-13.8-4.5c-8.1-1.3-14.2-3.6-18.2-6.9c-4-3.3-6-7.3-6-11.9c0-6.1,2.3-10.8,7-14.1
			s10.6-5,17.6-5c4.9-0.1,9.8,0.8,14.3,2.8c3.9,1.7,7.3,4.4,9.8,7.9c0.6,0.8,0.9,1.8,1,2.8c0,1.4-0.8,2.7-2,3.4
			c-0.7,0.5-1.5,0.7-2.4,0.6c-1.7,0-3.2-0.6-4.4-1.9c-4.1-4.6-9.6-7-16.7-7c-4.6,0-8.2,0.9-11,2.8c-2.7,1.9-4.1,4.2-4.1,7
			c0,2.9,1.4,5.6,3.9,7.1c2.6,1.8,7.1,3.2,13.7,4.3c8.9,1.5,15.2,3.9,19.1,7.3c3.7,3.1,5.8,7.7,5.7,12.5c0.1,3.7-1.2,7.3-3.4,10.3
			c-2.5,3.1-5.8,5.6-9.5,7c-4.4,1.7-9.1,2.6-13.9,2.5C685.9,90.5,680.8,89.6,676.1,87.8z"/>
		<path fill="#000" d="M368.6,25.7c0,0.8-0.2,1.5-0.5,2.2l-37.8,83c-0.8,1.9-2,2.9-3.6,2.9c-0.8,0-1.5-0.2-2.2-0.5
			c-1.9-0.7-2.9-2-2.9-3.7c0-0.8,0.2-1.5,0.5-2.2l9.7-21.6v-0.1L304,28.1c-0.3-0.7-0.5-1.5-0.5-2.2c0-1.7,1.1-3.2,2.7-3.7
			c0.7-0.3,1.5-0.5,2.2-0.5c1.7,0,3.2,1,3.7,2.6l24.3,51.3l23.2-51.1c0.8-1.8,2.1-2.7,3.7-2.7c0.8,0,1.5,0.2,2.2,0.5
			C367.6,22.8,368.6,24,368.6,25.7z"/>
		<path fill="#000" d="M526.3,25.4c4.7,2.9,8.5,7,11,11.9c2.7,5.4,4,11.3,3.9,17.3c0.1,1.2-0.4,2.4-1.2,3.2
			c-0.9,0.8-2,1.2-3.2,1.2h-50.4c0.7,6.8,3.3,12.4,8,16.6c4.7,4.2,10.5,6.3,17.5,6.4c3.1,0,6.1-0.5,9-1.6c2.7-0.8,5.1-2.2,7.3-3.9
			c0.9-0.8,2.1-1.2,3.4-1.2c1,0,2,0.4,2.7,1c1,0.8,1.6,2.1,1.6,3.4c0,1.1-0.5,2.2-1.4,2.9c-3.1,2.5-6.7,4.5-10.5,5.8
			c-9.8,3.7-20.8,2.9-30-2.1c-5.2-2.9-9.4-7.2-12.3-12.4c-3-5.5-4.5-11.6-4.4-17.9c-0.1-6.3,1.3-12.4,4.2-18
			c2.6-5.1,6.6-9.4,11.6-12.3c5.1-3,11-4.5,16.9-4.4C515.7,21,521.4,22.5,526.3,25.4z M494.3,35.5c-4.2,3.9-6.7,9.1-7.6,15.5h45.6
			c-0.7-6.4-3-11.6-7-15.5c-4-3.9-9.1-5.9-15.3-5.9C503.7,29.7,498.4,31.6,494.3,35.5L494.3,35.5z"/>
		<path fill="#000" d="M773.6,25.4c4.7,2.9,8.6,7,11.1,11.9c2.7,5.4,4,11.3,3.9,17.3c0.1,1.2-0.4,2.4-1.3,3.2
			c-0.9,0.8-2,1.2-3.2,1.2h-50.4c0.4,6.3,3.3,12.2,8,16.5c4.7,4.2,10.5,6.4,17.5,6.4c3.1,0,6.1-0.5,9-1.6c2.7-0.8,5.1-2.1,7.3-3.9
			c0.9-0.8,2.1-1.2,3.4-1.2c1,0,2,0.4,2.7,1c1,0.8,1.6,2.1,1.6,3.4c0,1.1-0.5,2.1-1.4,2.9c-3.1,2.5-6.7,4.5-10.5,5.8
			c-9.8,3.7-20.8,2.9-30.1-2.1c-5.2-2.9-9.4-7.2-12.3-12.3c-3-5.5-4.5-11.6-4.4-17.9c-0.1-6.3,1.3-12.4,4.2-18
			c2.6-5.1,6.7-9.4,11.6-12.3c5.1-3,11-4.5,16.9-4.4C763,21,768.6,22.5,773.6,25.4z M741.5,35.5c-4.2,3.9-6.7,9.1-7.6,15.5h45.7
			c-0.7-6.4-3-11.6-7-15.5c-4-3.9-9.1-5.9-15.3-5.9C750.9,29.7,745.7,31.6,741.5,35.5z"/>
		<path fill="#000" d="M878.6,87.8c-4.4-1.5-8.3-4-11.5-7.3c-0.7-0.8-1.2-1.8-1.2-2.9c0-1.5,0.8-2.9,2-3.7c0.9-0.7,2-1.1,3.1-1.1
			c1.4,0,2.7,0.6,3.6,1.7c2.2,2.4,4.9,4.3,8,5.4c3.5,1.3,7.2,1.9,10.9,1.9c5.8,0,10.2-1,13.1-3c2.7-1.7,4.4-4.6,4.5-7.8
			c0-3-1.5-5.5-4.4-7.5c-2.9-2-7.5-3.5-13.8-4.5c-8.1-1.3-14.2-3.6-18.3-6.9c-4-3.3-6-7.3-6.1-11.9c0-6.1,2.3-10.8,7-14.1
			s10.6-5,17.6-5c4.9-0.1,9.8,0.8,14.3,2.8c3.9,1.7,7.3,4.4,9.8,7.9c0.6,0.8,0.9,1.8,1,2.8c0,1.4-0.8,2.7-2,3.4
			c-0.7,0.5-1.5,0.7-2.4,0.6c-1.7,0-3.2-0.6-4.4-1.9c-4.1-4.6-9.6-7-16.7-7c-4.6,0-8.2,0.9-11,2.8c-2.7,1.9-4.1,4.2-4.1,7
			c0,2.9,1.4,5.6,3.9,7.1c2.6,1.8,7.1,3.2,13.7,4.3c8.9,1.5,15.2,3.9,19.1,7.3c3.7,3.1,5.8,7.7,5.7,12.5c0.1,3.7-1.2,7.3-3.4,10.3
			c-2.5,3.1-5.8,5.6-9.5,7c-4.4,1.7-9.1,2.6-13.8,2.5C888.3,90.5,883.3,89.6,878.6,87.8z"/>
		<path fill="#000" d="M975,25.4c4.7,2.9,8.5,7,11,11.9c2.7,5.4,4,11.3,3.9,17.3c0.1,1.2-0.4,2.3-1.2,3.2c-0.9,0.8-2,1.2-3.2,1.2
			h-50.4c0.4,6.3,3.3,12.2,8,16.5c4.7,4.2,10.5,6.4,17.5,6.4c3.1,0,6.1-0.5,9-1.6c2.7-0.8,5.1-2.2,7.3-3.9c0.9-0.8,2.1-1.2,3.4-1.2
			c1,0,2,0.4,2.7,1c1,0.8,1.6,2.1,1.6,3.4c0,1.1-0.5,2.2-1.4,2.9c-3.1,2.5-6.7,4.5-10.5,5.8c-9.8,3.7-20.8,2.9-30.1-2.1
			c-5.2-2.9-9.4-7.2-12.3-12.3c-3-5.5-4.5-11.6-4.4-17.9c-0.1-6.3,1.3-12.4,4.2-18c2.6-5.1,6.7-9.4,11.6-12.3c5.1-3,11-4.5,16.9-4.4
			C964.4,21,970.1,22.5,975,25.4z M943,35.5c-4.2,3.9-6.7,9.1-7.6,15.5H981c-0.7-6.4-3-11.6-7-15.5s-9.1-5.9-15.3-5.9
			C952.4,29.7,947.1,31.6,943,35.5L943,35.5z"/>
		<path fill="#000" d="M657.4,81.7c0.8,1,1.3,2.2,1.2,3.5c0,1.3-0.5,2.6-1.5,3.4c-1,0.9-2.4,1.4-3.7,1.4h-2.6
			c-8.4,0.1-16.1-4.4-20-11.8c-2-3.8-3-8-2.9-12.3V30h-8.1c-1.2,0.1-2.3-0.4-3.2-1.2c-0.8-0.8-1.2-1.8-1.2-2.9
			c0-1.1,0.4-2.2,1.2-3.1c0.9-0.8,2-1.2,3.2-1.2h8.1V4.9c0-1.3,0.4-2.6,1.3-3.5c0.9-0.9,2.1-1.4,3.4-1.4c2.6-0.1,4.7,1.9,4.9,4.5
			c0,0.1,0,0.3,0,0.4v16.8h14.1c1.2-0.1,2.3,0.4,3.2,1.2c0.8,0.8,1.2,1.9,1.2,3.1c0,1.1-0.4,2.2-1.2,2.9c-0.9,0.8-2,1.2-3.2,1.2
			h-14.1v35.8c-0.2,3.8,1.2,7.6,3.7,10.4c2.5,2.7,6,4.2,9.6,4h3.4C655.3,80.2,656.5,80.8,657.4,81.7z"/>
		<path fill="#000" d="M612.5,85.1c0,2.6-2.1,4.8-4.7,4.9c-0.1,0-0.2,0-0.2,0c-1.3,0.1-2.6-0.4-3.5-1.3c-0.9-1-1.4-2.2-1.3-3.5
			V51.4c0-7.5-1.9-13.2-5.8-17.1s-9.1-5.8-15.6-5.8c-6.4,0-11.5,1.9-15.4,5.8c-3.9,3.9-5.8,9.6-5.8,17.1v33.6c0,1.3-0.5,2.5-1.4,3.5
			c-0.9,0.9-2.2,1.5-3.5,1.4c-1.3,0.1-2.6-0.4-3.5-1.3c-0.9-0.9-1.4-2.2-1.3-3.5V50.4c0-6.6,1.3-12.2,3.9-16.9
			c2.5-4.6,6.3-8.3,10.9-10.7c10.2-4.9,22-4.9,32.2,0c4.6,2.4,8.5,6.1,11,10.7c2.6,4.7,4,10.3,4,16.9V85.1z"/>
		<path fill="#000" d="M458.5,85.4c-0.1,1.3,0.4,2.5,1.4,3.4c0.9,0.9,2.2,1.4,3.5,1.3c2.5,0.1,4.6-1.7,4.7-4.2c0-0.2,0-0.3,0-0.5
			V49.4c0.1-5.2-1-10.3-3.2-14.9c-1.9-4.1-5-7.5-8.9-9.9c-3.9-2.4-8.5-3.6-13.1-3.5c-4.5-0.1-9,1-13.1,3.1c-3.8,2.1-7.1,5.1-9.4,8.7
			c-2.1-3.6-5.1-6.6-8.7-8.7c-3.8-2.1-8-3.2-12.3-3.1h-3.2c-4.6-0.1-9.1,1.1-13.1,3.5c-3.8,2.4-6.9,5.8-8.8,9.9
			c-2.2,4.7-3.3,9.8-3.2,14.9v35.5l-0.1,0.4c-0.1,1.3,0.4,2.5,1.4,3.4l0.1,0.1c0.9,0.8,2.1,1.3,3.3,1.2h0.1c1.2,0,2.4-0.4,3.3-1.2
			l0.1-0.1c0.9-0.9,1.4-2.1,1.4-3.4V49.4c-0.1-3.3,0.5-6.5,1.8-9.5l0.1-0.2c0-0.1,0.1-0.1,0.1-0.2c3-5.9,9.1-9.5,15.7-9.3
			c4.6-0.1,8.9,1.8,11.9,5.2c3,3.5,4.6,8.1,4.6,14v35.9c-0.1,1.3,0.4,2.5,1.4,3.4c0.9,0.9,2.2,1.4,3.5,1.3c2.5,0.2,4.6-1.7,4.8-4.2
			c0-0.2,0-0.4,0-0.5V49.2c-0.1-5.7,1.4-10.2,4.7-13.7s7.5-5.3,12.7-5.2c4.6-0.2,9,1.8,11.9,5.2c3,3.5,4.6,8.1,4.6,14L458.5,85.4z"
			/>
		<path fill="#000" d="M858.9,85.1c0,2.6-2.1,4.8-4.7,4.9c-0.1,0-0.2,0-0.2,0c-1.3,0.1-2.5-0.4-3.5-1.3c-0.9-0.9-1.4-2.2-1.3-3.5
			V51.4c0-7.5-1.9-13.2-5.8-17.1c-3.9-3.9-9.1-5.8-15.6-5.8c-6.4,0-11.5,1.9-15.4,5.8s-5.8,9.6-5.8,17.1v33.6c0,1.3-0.5,2.5-1.4,3.5
			c-0.9,0.9-2.2,1.5-3.5,1.4c-1.3,0.1-2.6-0.4-3.5-1.3c-0.9-0.9-1.4-2.2-1.3-3.5V50.4c0-6.6,1.3-12.2,3.9-16.9
			c2.5-4.6,6.3-8.3,10.9-10.7c10.2-4.9,22-4.9,32.2,0c4.7,2.4,8.5,6.1,11,10.7c2.7,4.7,4,10.3,4,16.9V85.1z"/>
		<path fill="#000" d="M223.3,38.2c-2.9-5.2-7.3-9.6-12.5-12.5c-11-6.1-24.3-6.1-35.3,0c-5.2,3-9.5,7.3-12.5,12.5
			c-3.1,5.4-4.6,11.5-4.6,17.7v53c0,1.3,0.5,2.6,1.4,3.5c0.9,0.9,2.1,1.4,3.4,1.4c2.6,0.1,4.7-1.9,4.9-4.5c0-0.1,0-0.3,0-0.4V90.5
			h26c12.1,0.1,23.3-6.4,29.1-17c3-5.4,4.5-11.5,4.4-17.6C228,49.7,226.4,43.6,223.3,38.2z M215.2,69.2c-2.1,3.9-5.3,7.1-9.1,9.3
			c-3.9,2.3-8.4,3.4-12.9,3.4H168v-26c-0.1-4.6,1.1-9.2,3.3-13.3c6.8-12.1,22.2-16.4,34.3-9.6c4,2.3,7.3,5.6,9.6,9.6
			c2.2,4.1,3.4,8.6,3.3,13.3C218.6,60.5,217.5,65.1,215.2,69.2z"/>
		<path fill="#000" d="M299.1,38.2c-3-5.2-7.3-9.6-12.5-12.5c-11-6.1-24.3-6.1-35.3,0c-5.2,3-9.5,7.3-12.4,12.5
			c-3.1,5.4-4.6,11.5-4.6,17.7c-0.1,6.2,1.4,12.2,4.4,17.6c5.8,10.6,17,17.2,29.1,17h29.9c3.2,0,5.9-2.6,5.9-5.9V55.9
			C303.8,49.7,302.2,43.6,299.1,38.2z M269.3,81.8H269c-4.5,0.1-9-1.1-12.9-3.4c-3.8-2.2-7-5.4-9.1-9.3c-2.2-4.1-3.3-8.6-3.3-13.3
			c-0.1-4.6,1.1-9.2,3.3-13.3c2.1-3.9,5.3-7.1,9.1-9.3c3.9-2.3,8.3-3.5,12.9-3.4c9.1-0.1,17.5,4.8,21.9,12.8
			c2.2,4.1,3.4,8.6,3.3,13.3v25.9L269.3,81.8z"/>
	</g>
</g>
</svg>
