<?xml version="1.0" encoding="utf-8"?>
<!-- Generator: Adobe Illustrator 22.1.0, SVG Export Plug-In . SVG Version: 6.00 Build 0)  -->
<svg version="1.1" id="Layer_1" xmlns="http://www.w3.org/2000/svg" xmlns:xlink="http://www.w3.org/1999/xlink" x="0px" y="0px"
	 viewBox="0 0 718.9 166.1" style="enable-background:new 0 0 718.9 166.1;" xml:space="preserve">
<style type="text/css">
	.st0{fill:#20253A;}
</style>
<g>
	<path class="st0" d="M130.8,129.5c-6.8,0-13.1-3.9-17.1-10.6c-4,6.7-10.2,10.6-17.1,10.6c0,0-0.1,0-0.1,0
		c-7.5-0.1-14.2-4.8-18-12.6l0-0.1L49.1,54.1l37.5-17.5L113.7,94l26.8-57.4L178,54.1l-29.1,62.7c-3.8,7.9-10.5,12.6-18,12.6
		C130.9,129.5,130.9,129.5,130.8,129.5 M122.4,112.4c2.1,4.1,5.1,6.4,8.5,6.4c0,0,0,0,0,0c3.4,0,6.4-2.4,8.5-6.6l24.5-52.9
		l-18.2-8.5l-26,55.8L122.4,112.4z M88.2,112.2c2,4.2,5.1,6.6,8.4,6.6c0,0,0,0,0,0c3.3,0,6.4-2.3,8.5-6.4l2.7-5.8L81.5,50.8
		l-18.2,8.5L88.2,112.2z"/>
	<path class="st0" d="M223.3,117.6c5.6,0,8.4-4.5,9.8-7.7L246.8,75l-11-4l-12.6,35l-12.6-35l-11,4l13.8,34.9
		C214.9,113.1,217.7,117.6,223.3,117.6z"/>
	<path class="st0" d="M299.6,117.6c5.6,0,8.4-4.5,9.8-7.7L323.1,75l-11-4l-12.6,35l-12.6-35l-11,4l13.8,34.9
		C291.2,113.1,294,117.6,299.6,117.6z"/>
	<path class="st0" d="M373.1,116.5h-11.3v-5.1c-3,3.7-7.4,6.2-13.7,6.2c-12.6,0-22.2-10.3-22.2-24.1c0-13.7,9.5-24.1,22.2-24.1
		c6.3,0,10.7,2.5,13.7,6.3v-5.1h11.3V116.5z M337.3,93.6c0,7.4,4.8,13.3,12.5,13.3c7.4,0,12.4-5.7,12.4-13.3c0-7.6-5-13.3-12.4-13.3
		C342.1,80.3,337.3,86.2,337.3,93.6"/>
	<path class="st0" d="M623.5,93.5c0,1.4-0.1,3.1-0.2,4.2h-33.1c1.3,6.6,6.6,9.8,12.4,9.8c4.9,0,8.4-1.5,11.7-4.3l7.1,7.5
		c-5.2,4.8-11.8,6.9-19.5,6.9c-14,0-23.8-9.5-23.8-23.9c0-14.4,9.5-24.2,23.1-24.2C614.4,69.5,623.5,79.2,623.5,93.5 M590,89.6h21.8
		c-0.7-6.1-5-10.2-10.7-10.2C595,79.5,590.4,84,590,89.6"/>
	<path class="st0" d="M666.4,81.7h-17.7v16.7c0,5.7,2,8.3,7.8,8.3c2.9,0,6.4-1.8,8.9-3.3l4.4,9.5c-4,2.7-8.6,4.8-15.2,4.8
		c-11.3,0-17.1-6.4-17.1-18.3V81.7h-8.8V71h8.8V57.1h11.2V71h17.7V81.7z"/>
	<path class="st0" d="M459.6,71L447,106l-11.3-31.3c-1.1-3-3.6-5.2-6.9-5.2c-3.2,0-5.8,2.2-6.9,5.2L410.7,106l-12.6-35l-11,4
		l13.8,34.9c1.4,3.2,4.2,7.7,9.8,7.7c5.6,0,8.4-4.5,9.8-7.7l8.3-21.1l8.3,21.1c1.4,3.2,4.2,7.7,9.8,7.7c5.6,0,8.4-4.5,9.8-7.7
		L470.6,75L459.6,71z"/>
	<path class="st0" d="M520.2,116.5h-11.3v-5.1c-3,3.7-7.4,6.2-13.7,6.2c-12.6,0-22.2-10.3-22.2-24.1c0-13.7,9.5-24.1,22.2-24.1
		c6.3,0,10.7,2.5,13.7,6.3v-5.1h11.3V116.5z M484.4,93.6c0,7.4,4.8,13.3,12.5,13.3c7.4,0,12.4-5.7,12.4-13.3c0-7.6-5-13.3-12.4-13.3
		C489.2,80.3,484.4,86.2,484.4,93.6"/>
	<rect x="532.3" y="48.5" class="st0" width="11.2" height="68.1"/>
	<rect x="556.6" y="48.5" class="st0" width="11.2" height="68.1"/>
	<rect x="255.7" y="70.7" class="st0" width="11.2" height="45.8"/>
	<path class="st0" d="M268.5,55.3c0,4-3.2,7.1-7.2,7.1c-4,0-7.1-3.1-7.1-7.1c0-4,3.1-7.2,7.1-7.2C265.3,48,268.5,51.2,268.5,55.3z"
		/>
</g>
</svg>
