<svg width="12" height="14" viewBox="0 0 12 14" fill="none" xmlns="http://www.w3.org/2000/svg">
<path d="M0.331055 2.66406C0.331055 1.89648 0.574219 1.26367 1.06055 0.765625C1.55273 0.267578 2.18262 0.0185547 2.9502 0.0185547C3.72949 0.0185547 4.35938 0.270508 4.83984 0.774414C5.32617 1.27246 5.56934 1.91992 5.56934 2.7168V3.34082C5.56934 4.11426 5.32324 4.74707 4.83105 5.23926C4.34473 5.72559 3.72363 5.96875 2.96777 5.96875C2.20605 5.96875 1.57617 5.72559 1.07812 5.23926C0.580078 4.74707 0.331055 4.09375 0.331055 3.2793V2.66406ZM1.54395 3.34082C1.54395 3.79785 1.67285 4.17578 1.93066 4.47461C2.18848 4.76758 2.53418 4.91406 2.96777 4.91406C3.38379 4.91406 3.71777 4.77051 3.96973 4.4834C4.22754 4.19629 4.35645 3.80371 4.35645 3.30566V2.66406C4.35645 2.20703 4.23047 1.8291 3.97852 1.53027C3.72656 1.23145 3.38379 1.08203 2.9502 1.08203C2.5166 1.08203 2.17383 1.23145 1.92188 1.53027C1.66992 1.8291 1.54395 2.21875 1.54395 2.69922V3.34082ZM6.5625 9.8623C6.5625 9.09473 6.80566 8.46484 7.29199 7.97266C7.78418 7.47461 8.41406 7.22559 9.18164 7.22559C9.94922 7.22559 10.5791 7.47168 11.0713 7.96387C11.5635 8.45605 11.8096 9.10938 11.8096 9.92383V10.5479C11.8096 11.3154 11.5635 11.9482 11.0713 12.4463C10.585 12.9385 9.96094 13.1846 9.19922 13.1846C8.4375 13.1846 7.80762 12.9414 7.30957 12.4551C6.81152 11.9629 6.5625 11.3096 6.5625 10.4951V9.8623ZM7.77539 10.5479C7.77539 11.0107 7.9043 11.3916 8.16211 11.6904C8.41992 11.9834 8.76562 12.1299 9.19922 12.1299C9.62109 12.1299 9.95801 11.9863 10.21 11.6992C10.4619 11.4062 10.5879 11.0107 10.5879 10.5127V9.8623C10.5879 9.39941 10.459 9.02148 10.2012 8.72852C9.94922 8.43555 9.60938 8.28906 9.18164 8.28906C8.76562 8.28906 8.42578 8.43555 8.16211 8.72852C7.9043 9.01562 7.77539 9.40527 7.77539 9.89746V10.5479ZM3.33691 12.0332L2.41406 11.4531L8.66309 1.45117L9.58594 2.03125L3.33691 12.0332Z" fill="black"/>
</svg>
