<?xml version="1.0" encoding="UTF-8"?>
<svg width="80px" height="80px" viewBox="0 0 80 80" version="1.1" xmlns="http://www.w3.org/2000/svg" xmlns:xlink="http://www.w3.org/1999/xlink">
    <!-- Generator: sketchtool 61.2 (101010) - https://sketch.com -->
    <title>5378BC2E-C163-4C53-9BFF-BA1BE9EF0E2D</title>
    <desc>Created with sketchtool.</desc>
    <g id="Asset-Artboard-Page" stroke="none" stroke-width="1" fill="none" fill-rule="evenodd">
        <g id="IconWaiter---noun_Waiter_1613560" fill="#B9B9B9" fill-rule="nonzero">
            <path d="M20.6900581,32.3305554 C27.4269001,32.3305554 31.7426895,36.3926637 35.9532157,40.2464588 C36.4795315,40.6630853 36.9005841,41.1838684 37.4268999,41.6004949 C37.9532157,42.0171214 41.8479525,45.7667598 44.6900577,48.4748321 C45.3216366,48.9956152 45.8479524,49.5163983 46.269005,49.9330248 C49.1111111,47.1207959 58.2690048,38.0591697 62.0584784,34.3095312 C62.3742679,33.9970614 62.6900573,33.8929047 63.0058468,33.8929047 C63.3216363,33.8929047 63.7426889,34.101218 63.9532152,34.3095312 L63.9532152,34.3095312 L70.9005835,41.1838684 L71.0058467,43.0586876 L47.3216366,67.0147111 C47.0058471,67.3271809 46.6900576,67.4313376 46.3742682,67.4313376 C45.8479524,67.4313376 43.1461981,64.2008758 37.7777771,58.888888 L37.7777771,58.888888 L37.7671111,58.8865556 L37.7743344,58.8881112 C37.7777788,58.888889 37.9532174,57.9530858 38.4795332,57.7447725 C39.005849,57.5364593 39.5321648,57.6406159 39.9532175,58.0572424 C42.0584807,60.0362184 44.7953229,62.8484473 46.2690071,64.2024835 L46.2690071,64.2024835 L68.1637446,42.2254349 L63.0058497,37.1217601 L47.9532177,52.016158 C47.1111124,52.849411 46.3742703,53.5785074 45.4269018,52.7452544 C45.3216387,52.6410977 44.2690071,51.7036881 42.900586,50.3496519 C40.2690069,47.7457362 36.1637437,43.891941 35.742691,43.4753144 C35.2163752,43.0586879 34.7953226,42.5379048 34.2690068,42.1212783 C30.0584803,38.267483 26.4795328,34.9344709 20.7953222,34.9344709 C11.4269008,34.9344709 3.33333333,41.8411712 3.33333333,51.1111111 L3.33333329,51.1111104 L4.69711111,51.4185556 L6.36611111,51.7955556 L6.69166677,51.8694445 C6.90981492,51.9187037 7.12681493,51.9677037 7.34266679,52.0164445 L7.58011111,52.0695556 L6.36611111,51.7955556 L6.03377786,51.7208889 C5.81333341,51.6711111 5.59174081,51.6210741 5.36900006,51.5707778 L4.69711111,51.4185556 L4.0187778,51.2658889 L4.0187778,51.2658889 L3.33333329,51.1111104 L1.11111111,51.1111104 C1.11111111,40.4871348 9.84795305,32.3305554 20.6900581,32.3305554 Z M77.5413022,27.9205555 C78.2669258,27.9205555 78.8888889,28.5505555 78.8888889,29.2855555 C78.8888889,30.0205556 78.2669258,30.6505556 77.5413022,30.6505556 L77.5413022,30.6505556 L44.68092,30.6505556 C43.9552964,30.6505556 43.3333333,30.0205556 43.3333333,29.2855555 C43.3333333,28.5505555 43.9552964,27.9205555 44.68092,27.9205555 L44.68092,27.9205555 Z M21.5321641,5.55555556 C28.2690065,5.55555556 33.6374278,10.9105557 33.6374278,17.6305559 C33.6374278,24.3505561 28.1637433,29.7055562 21.5321641,29.7055562 C14.7953218,29.7055562 9.42690055,24.3505561 9.42690055,17.6305559 C9.42690055,10.9105557 14.7953218,5.55555556 21.5321641,5.55555556 Z M21.5321636,8.28555557 C16.2690058,8.28555557 12.0584795,12.4855556 12.0584795,17.7355557 C12.0584795,22.9855558 16.3742689,27.1855558 21.5321636,27.1855558 C26.7953215,27.1855558 31.0058477,22.9855558 31.0058477,17.7355557 C31.0058477,12.4855556 26.6900583,8.28555557 21.5321636,8.28555557 Z" id="Combined-Shape"></path>
        </g>
    </g>
</svg>