<?xml version="1.0" encoding="UTF-8"?>
<svg xmlns="http://www.w3.org/2000/svg" xmlns:xlink="http://www.w3.org/1999/xlink" width="30pt" height="27pt" viewBox="0 0 30 27" version="1.1">
<g id="surface1">
<path style=" stroke:none;fill-rule:nonzero;fill:rgb(15.294118%,21.568627%,45.098039%);fill-opacity:1;" d="M 21.902344 15.921875 C 21.214844 15.921875 20.652344 15.355469 20.652344 14.65625 C 20.652344 13.957031 21.214844 13.390625 21.902344 13.390625 C 22.59375 13.390625 23.152344 13.957031 23.152344 14.65625 C 23.152344 15.355469 22.59375 15.921875 21.902344 15.921875 M 8.097656 15.921875 C 7.40625 15.921875 6.847656 15.355469 6.847656 14.65625 C 6.847656 13.957031 7.40625 13.390625 8.097656 13.390625 C 8.785156 13.390625 9.347656 13.957031 9.347656 14.65625 C 9.347656 15.355469 8.785156 15.921875 8.097656 15.921875 M 22.351562 8.304688 L 24.847656 3.925781 C 24.957031 3.761719 24.964844 3.550781 24.871094 3.378906 C 24.78125 3.207031 24.597656 3.101562 24.40625 3.105469 C 24.210938 3.109375 24.035156 3.222656 23.949219 3.398438 L 21.421875 7.832031 C 17.335938 5.976562 12.664062 5.976562 8.578125 7.832031 L 6.050781 3.398438 C 5.964844 3.222656 5.789062 3.109375 5.59375 3.105469 C 5.402344 3.101562 5.21875 3.207031 5.128906 3.378906 C 5.035156 3.550781 5.042969 3.761719 5.152344 3.925781 L 7.648438 8.304688 C 3.359375 10.664062 0.429688 15.058594 0 20.25 L 30 20.25 C 29.570312 15.058594 26.636719 10.664062 22.351562 8.304688 "/>
</g>
</svg>
