<?xml version="1.0" encoding="UTF-8"?>
<svg xmlns="http://www.w3.org/2000/svg" xmlns:xlink="http://www.w3.org/1999/xlink" width="23pt" height="30pt" viewBox="0 0 23 30" version="1.1">
<g id="surface1">
<path style=" stroke:none;fill-rule:nonzero;fill:rgb(15.294118%,21.568627%,45.098039%);fill-opacity:1;" d="M 19.089844 15.742188 C 19.078125 13.59375 20.070312 11.96875 22.082031 10.773438 C 20.957031 9.199219 19.257812 8.332031 17.011719 8.160156 C 14.882812 7.996094 12.558594 9.375 11.710938 9.375 C 10.8125 9.375 8.75 8.21875 7.132812 8.21875 C 3.792969 8.273438 0.238281 10.828125 0.238281 16.023438 C 0.238281 17.5625 0.527344 19.148438 1.101562 20.78125 C 1.867188 22.933594 4.636719 28.207031 7.523438 28.117188 C 9.03125 28.082031 10.097656 27.070312 12.0625 27.070312 C 13.96875 27.070312 14.957031 28.117188 16.640625 28.117188 C 19.550781 28.078125 22.054688 23.285156 22.785156 21.128906 C 18.878906 19.328125 19.089844 15.855469 19.089844 15.742188 Z M 15.699219 6.125 C 17.332031 4.226562 17.183594 2.496094 17.136719 1.875 C 15.691406 1.957031 14.023438 2.835938 13.070312 3.921875 C 12.019531 5.078125 11.402344 6.515625 11.535156 8.132812 C 13.097656 8.25 14.523438 7.464844 15.699219 6.125 Z M 15.699219 6.125 "/>
</g>
</svg>
