<svg xmlns="http://www.w3.org/2000/svg" width="16.97cm" height="6.58cm" viewBox="0 0 481.14 186.61"><title>GonnaOrder_Logo</title><path d="M338.11,304.06c-23.37,0-43.63,19.61-43.63,43.62,0,26,18.31,43.63,43.63,43.63,23.37,0,43.62-19.61,43.62-43.63C381.73,321.67,363.42,304.06,338.11,304.06Z" transform="translate(-180.43 -204.69)" fill="#ffffff"/><path d="M314.93,204.69c-23.36,0-43.62,19.09-43.62,42.46,0,25.31,18.31,42.45,43.62,42.45,23.37,0,43.63-19.08,43.63-42.45C358.56,221.83,340.25,204.69,314.93,204.69Zm0,64.66c-12.46,0-21.81-9.74-21.81-22.2,0-12.86,9.35-22.2,21.81-22.2,12.86,0,21.82,9.34,21.82,22.2C336.75,259.61,327.79,269.35,314.93,269.35Z" transform="translate(-180.43 -204.69)" fill="#ffffff"/><path d="M366,247.15c0-25.32,21.81-42.46,44-42.46,25.32,0,43.23,17.14,43.23,42.46v40.5H431.39v-40.5c0-12.86-9-22.2-21.81-22.2-12.46,0-21.81,9.34-21.81,22.2v40.5H366Z" transform="translate(-180.43 -204.69)" fill="#ffffff"/><path d="M464.5,247.15c0-25.32,21.81-42.46,44-42.46,25.31,0,43.23,17.14,43.23,42.46v40.5H529.93v-40.5c0-12.86-9-22.2-21.81-22.2-12.46,0-21.81,9.34-21.81,22.2v40.5H464.5Z" transform="translate(-180.43 -204.69)" fill="#ffffff"/><path d="M602.76,204.69c-23.37,0-43.62,19.09-43.62,42.46,0,25.31,17.14,42.45,41.68,42.45,10.12,0,19.08-3.5,24.14-9v7h21.42v-40.5C646.38,221.83,628.08,204.69,602.76,204.69Zm0,64.66c-12.46,0-21.81-9.74-21.81-22.2,0-12.86,9.35-22.2,21.81-22.2,12.86,0,21.81,9.34,21.81,22.2C624.57,259.61,615.62,269.35,602.76,269.35Z" transform="translate(-180.43 -204.69)" fill="#ffffff"/><path d="M389.13,337.56c0-17.92,12.85-30.38,30.38-30.38h7.79v20.25h-6.23c-5.84,0-10.13,3.9-10.13,10.13v50.63H389.13Z" transform="translate(-180.43 -204.69)" fill="#ffffff"/><path d="M497,286.39v25.85c-7-5.06-14.8-7-23-7-23,0-42.46,19.08-42.46,42.45,0,25.32,18.31,42.46,43.63,42.46,23.36,0,43.61-19.09,43.61-42.46V286.39Zm-21.81,83.49c-12.47,0-21.82-9.73-21.82-22.2,0-12.85,9.35-22.2,21.82-22.2,12.85,0,21.81,9.35,21.81,22.2C497,360.15,488.06,369.88,475.21,369.88Z" transform="translate(-180.43 -204.69)" fill="#ffffff"/><path d="M615.81,347.68c-1.56-26.48-18.31-42.45-43.63-42.45-23.36,0-43.62,19.08-43.62,42.45,0,25.32,18.31,42.46,43.62,42.46a42.08,42.08,0,0,0,30-12.47L588.93,364c-5.84,5.45-9.74,7.4-16.75,7.4-10.9,0-19.47-6.62-22.2-16.36h65.83Zm-65.44-9.34c3.12-9,10.91-15.58,21.81-15.58,11.3,0,19.09,6.23,22.2,15.58Z" transform="translate(-180.43 -204.69)" fill="#ffffff"/><path d="M623.4,337.56c0-17.92,12.85-30.38,30.38-30.38h7.79v20.25h-6.23c-5.84,0-10.13,3.9-10.13,10.13v50.63H623.4Z" transform="translate(-180.43 -204.69)" fill="#ffffff"/><path d="M222.92,204.69l.09,0c-.41,0-.81,0-1.22,0a41.3,41.3,0,0,0-11,1.51,42.8,42.8,0,0,0-10.24,4.3c-11.54,6.95-18.92,19.68-18.92,35.18,0,23,17.22,40.91,40.19,40.91.35,0,.69,0,1,0a40.65,40.65,0,0,0,20.41-5.77v8.33c0,12.79-8.65,22.56-21.44,22.56s-21.43-9-21.43-21.81H180.43c0,24.82,16.54,40.24,41.36,40.24,22.57,0,42.12-16.54,42.12-41V253.57h0V204.69Zm-1.13,62.43c-12,0-21-9.41-21-21.44,0-12.41,9-21.43,21-21.43,12.41,0,21.06,9,21.06,21.43C242.85,257.71,234.2,267.12,221.79,267.12Z" transform="translate(-180.43 -204.69)" fill="#ffffff"/></svg>
