<?xml version="1.0" encoding="UTF-8"?>
<svg width="13px" height="13px" viewBox="0 0 13 13" version="1.1" xmlns="http://www.w3.org/2000/svg" xmlns:xlink="http://www.w3.org/1999/xlink">
    <!-- Generator: sketchtool 60.1 (101010) - https://sketch.com -->
    <title>B917127A-DDCD-440E-AF96-13FE2628B9AA</title>
    <desc>Created with sketchtool.</desc>
    <g id="02.Actions-&amp;-Menu---Mobile" stroke="none" stroke-width="1" fill="none" fill-rule="evenodd">
        <g id="02.07-SplashScreen-Discount-Galaxy-S10+" transform="translate(-110.000000, -400.000000)" fill="#FF7200">
            <g id="Offer/Title-Price" transform="translate(0.000000, 328.000000)">
                <path d="M116.601547,84.999969 C116.940087,84.999969 117.227847,84.8814796 117.464826,84.6445011 L122.644501,79.464826 C122.88148,79.2278475 122.999969,78.9400875 122.999969,78.6015468 C122.999969,78.263006 122.88148,77.975246 122.644501,77.7382676 L117.261701,72.3554679 C117.024723,72.1184894 116.736963,72 116.398422,72 L111.218747,72 C110.880206,72 110.592446,72.1184894 110.355468,72.3554679 C110.118489,72.5924464 110,72.8802064 110,73.2187471 L110,78.3984222 C110,78.736963 110.118489,79.024723 110.355468,79.2617014 L115.738268,84.6445011 C115.975246,84.8814796 116.263006,84.999969 116.601547,84.999969 Z M112.843743,76.0624903 C112.505202,76.0624903 112.217443,75.9440009 111.980464,75.7070224 C111.743486,75.4700439 111.624996,75.182284 111.624996,74.8437432 C111.624996,74.5052025 111.743486,74.2174425 111.980464,73.980464 C112.217443,73.7434856 112.505202,73.6249961 112.843743,73.6249961 C113.182284,73.6249961 113.470044,73.7434856 113.707022,73.980464 C113.944001,74.2174425 114.06249,74.5052025 114.06249,74.8437432 C114.06249,75.182284 113.944001,75.4700439 113.707022,75.7070224 C113.470044,75.9440009 113.182284,76.0624903 112.843743,76.0624903 Z" id="Tag"></path>
            </g>
        </g>
    </g>
</svg>