<svg id="Layer_1" data-name="Layer 1" xmlns="http://www.w3.org/2000/svg" width="80" height="80" viewBox="0 0 80 80"><path d="M40,0a40,40,0,0,0-1.25,80h2.5A40,40,0,0,0,40,0ZM41.3,75.77V63.48H38.8V75.77a35.72,35.72,0,1,1,2.5,0Z" transform="translate(0 0)"/><path d="M45.3,43.78a8.68,8.68,0,0,0-4.1,7.5v1l2.7-1.7,4.59-2.9a8.65,8.65,0,0,0,4.1-7.5v-1l-2.7,1.7Z" transform="translate(0 0)"/><path d="M41.3,33.59v1l2.7-1.7L48.59,30a8.65,8.65,0,0,0,4.1-7.49v-1L45.4,26.1A8.67,8.67,0,0,0,41.3,33.59Z" transform="translate(0 0)"/><path d="M45.4,35a8.67,8.67,0,0,0-4.1,7.49v1l2.7-1.7,4.59-2.89a8.65,8.65,0,0,0,4.1-7.5v-1l-2.8,1.7Z" transform="translate(0 0)"/><path d="M45.3,52.68a8.67,8.67,0,0,0-4.1,7.49v1l7.29-4.6a8.66,8.66,0,0,0,4.1-7.47v-1l-2.7,1.68Z" transform="translate(0 0)"/><path d="M34.61,43.78,30,40.88l-2.7-1.69v1a8.93,8.93,0,0,0,4.1,7.5L36,50.58l2.7,1.7v-1A8.92,8.92,0,0,0,34.61,43.78Z" transform="translate(0 0)"/><path d="M34.61,35,30,32.1l-2.7-1.7v1a8.93,8.93,0,0,0,4.1,7.5L36,41.78l2.7,1.7v-1A8.67,8.67,0,0,0,34.61,35Z" transform="translate(0 0)"/><path d="M34.61,52.68,30,49.78,27.31,48.1v1a8.91,8.91,0,0,0,4.1,7.49l7.29,4.6v-1A8.88,8.88,0,0,0,34.61,52.68Z" transform="translate(0 0)"/><path d="M34.61,26.1l-7.3-4.6v1A8.91,8.91,0,0,0,31.41,30L36,32.89l2.7,1.7v-1A8.67,8.67,0,0,0,34.61,26.1Z" transform="translate(0 0)"/><path d="M40.1,7.51l-.1-.2-.1.2a11.83,11.83,0,0,0-2.4,7.2,12.25,12.25,0,0,0,2.4,7.19l.1.2.1-.2a11.74,11.74,0,0,0,2.4-7.19A11.56,11.56,0,0,0,40.1,7.51Z" transform="translate(0 0)"/></svg>