<svg id="Layer_1" data-name="Layer 1" xmlns="http://www.w3.org/2000/svg" width="80" height="80" viewBox="0 0 80 80"><defs><style>.cls-1{fill:#233676;}</style></defs><path class="cls-1" d="M40,80A40,40,0,1,1,80,40,40,40,0,0,1,40,80ZM40,4.17A35.83,35.83,0,1,0,75.83,40,35.87,35.87,0,0,0,40,4.17Z"/><path class="cls-1" d="M54.72,19.44l-.86.18A14.09,14.09,0,0,0,50.27,21,13.68,13.68,0,0,0,48,17.85l-.61-.6-.64.56a16.16,16.16,0,0,0-3.56,4.82,13.64,13.64,0,0,0-3.18-2.22l-.41.88c-1.7,3.58-1.42,7.68-.56,11a21.88,21.88,0,0,0,1.6,4.29,8.93,8.93,0,0,0,1.13,1.8l-4,6.4-1.37-1.87a7.4,7.4,0,0,0,.92-2.26,20.84,20.84,0,0,0,.75-4.52c.21-3.43-.29-7.51-2.65-10.7l-.57-.78a13.18,13.18,0,0,0-2.7,2.78,16,16,0,0,0-4.42-4.05L27,23l-.48.71A13.22,13.22,0,0,0,25,27.21a14,14,0,0,0-3.79-.69l-.89,0-.05.88a16.47,16.47,0,0,0,.43,3.84A13.86,13.86,0,0,0,17,32.55L16.3,33l.38.76a16.29,16.29,0,0,0,3.73,4.68,14.06,14.06,0,0,0-2.3,1.8l-.66.7.73.62c3,2.58,7.06,3.37,10.5,3.4a21.62,21.62,0,0,0,4.56-.44A10.75,10.75,0,0,0,35,44l1.79,2.44L27.47,61.34a.92.92,0,0,0,.26,1.26A.9.9,0,0,0,29,62.34l0,0,9.31-14.89,3,.54a11.33,11.33,0,0,0,.33,1.79A21,21,0,0,0,43.23,54c1.53,3.08,4,6.36,7.66,7.95l.87.39.35-.91a13.81,13.81,0,0,0,.6-2.85,16.37,16.37,0,0,0,5.85,1.3h.85l.06-.85a14,14,0,0,0-.4-3.85,16.38,16.38,0,0,0,3.63-1.3l.78-.43-.41-.79a14.21,14.21,0,0,0-2.28-3.1,13.42,13.42,0,0,0,2.48-3l.43-.74L63,45.39a15.87,15.87,0,0,0-5.57-2.19,13.38,13.38,0,0,0,1.31-3.65l-.95-.17C53.88,38.66,50,40,47,41.69a20.8,20.8,0,0,0-3.73,2.66,7.5,7.5,0,0,0-1.63,1.82l-2.29-.42,4-6.39a9,9,0,0,0,2.12.22A21.09,21.09,0,0,0,50,39.13c3.37-.68,7.18-2.23,9.66-5.33l.6-.75-.79-.57a13.84,13.84,0,0,0-2.6-1.32,16.28,16.28,0,0,0,2.77-5.31l.22-.82-.8-.28a14,14,0,0,0-3.83-.61,16,16,0,0,0-.31-3.84Z"/></svg>