<svg id="Layer_1" data-name="Layer 1" xmlns="http://www.w3.org/2000/svg" width="80" height="80" viewBox="0 0 80 80"><defs><style>.cls-1{fill:#233676;}</style></defs><path class="cls-1" d="M40,80A40,40,0,1,1,80,40,40,40,0,0,1,40,80ZM40,4.17A35.83,35.83,0,1,0,75.83,40,35.87,35.87,0,0,0,40,4.17Z"/><path class="cls-1" d="M61.36,35.76,60.22,36.9a4.82,4.82,0,0,1-2.57,1.4,2.17,2.17,0,0,1-1.94-.49,2.89,2.89,0,0,1-.39-2,.8.8,0,0,0-.83-.89.76.76,0,0,0-.55.23l-.85.86h0a8.53,8.53,0,0,0-2.41,4.28,4.62,4.62,0,0,0,.49,3.37c-2.44,1-4.8.75-6.33-.53a23.37,23.37,0,0,0,4.73-7.83,26.51,26.51,0,0,0,.9-2.77H52.8a.81.81,0,0,0,0-1.62h-2c0-.11,0-.23,0-.32a2.16,2.16,0,0,0,0-.51,1,1,0,0,0-1-.95,2.16,2.16,0,0,0-.51,0l-.31,0v-2a.82.82,0,1,0-1.63,0v2.29s0,0,0,.05a25.09,25.09,0,0,0-2.78.9,23.36,23.36,0,0,0-7.82,4.73c-1.28-1.53-1.52-3.89-.53-6.33a4.62,4.62,0,0,0,3.37.49A8.61,8.61,0,0,0,44,26.92h0l.86-.85a.81.81,0,0,0-.66-1.38,2.89,2.89,0,0,1-2-.39,2.17,2.17,0,0,1-.49-1.94,4.79,4.79,0,0,1,1.4-2.57l1.14-1.14a.81.81,0,0,0-.57-1.39,9,9,0,0,0-6.58,2.81,8.61,8.61,0,0,0-2.41,4.28,4.71,4.71,0,0,0,.4,3.22c-1.53,3.15-1.33,6.59.62,8.79a17.1,17.1,0,0,0-2.47,3.24c-1.52-1.68-1.73-4.47-.3-7.25a.82.82,0,0,0-.14-1,.81.81,0,0,0-1.3.21C29.71,35,30,38.87,32.44,41.1l.13.08a5.13,5.13,0,0,0-.17,1.11,2.45,2.45,0,0,0-2.33-.15c-1.76-1.64-2.08-4.59-.57-7.52a.81.81,0,1,0-1.44-.74c-1.75,3.39-1.49,7.17.86,9.41a2.5,2.5,0,0,0-.18,1.57l-.39.15c-2.24-2.35-6-2.62-9.41-.87a.81.81,0,0,0-.21,1.31.8.8,0,0,0,.95.14c2.93-1.51,5.87-1.2,7.52.57A2.37,2.37,0,0,0,27,47.71a2.45,2.45,0,0,0-1.07.61,2.42,2.42,0,0,0-.5.74,5.34,5.34,0,0,0-2.19-.92,5.06,5.06,0,0,0-3.37.64c-2.23,1.29-3.35,3.91-2.18,5.93a3.92,3.92,0,0,0,3.37,1.83A3.24,3.24,0,0,0,22,58a3.08,3.08,0,0,0,1.5.86,3.92,3.92,0,0,0,1.83,3.38c2,1.17,4.64,0,5.93-2.18a5,5,0,0,0-.28-5.56,2.42,2.42,0,0,0,.74-.5A2.45,2.45,0,0,0,32.29,53a2.51,2.51,0,0,0,1.55-.17c1.76,1.64,2.08,4.59.57,7.52a.8.8,0,0,0,.14,1,.81.81,0,0,0,1.31-.21c1.75-3.4,1.48-7.17-.87-9.41a3.12,3.12,0,0,0,.15-.39,2.5,2.5,0,0,0,1.57-.18c2.24,2.34,6,2.61,9.41.86a.82.82,0,0,0,.21-1.31.8.8,0,0,0-.95-.13c-2.93,1.51-5.88,1.19-7.52-.57a2.45,2.45,0,0,0-.15-2.33,5.13,5.13,0,0,0,1.11-.17.91.91,0,0,0,.08.13c2.23,2.44,6.06,2.73,9.5.95a.81.81,0,1,0-.74-1.44c-2.78,1.43-5.56,1.22-7.25-.31a17.37,17.37,0,0,0,3.24-2.45c2.21,1.95,5.64,2.13,8.78.61a4.73,4.73,0,0,0,3.23.4,8.61,8.61,0,0,0,4.28-2.41,8.87,8.87,0,0,0,2.81-6.58A.81.81,0,0,0,61.36,35.76ZM46.51,34.22a1,1,0,0,1,.7.28h0a1,1,0,0,1,0,1.37h0a1,1,0,0,1-1.38,0h0a1,1,0,0,1,0-1.38A1,1,0,0,1,46.51,34.22Zm-2.39,0h0a1,1,0,0,1,0-1.38,1,1,0,0,1,.67-.28,1,1,0,0,1,.7.28h0a1,1,0,0,1,0,1.38h0A1,1,0,0,1,44.12,34.17Z"/></svg>