<svg id="Layer_1" data-name="Layer 1" xmlns="http://www.w3.org/2000/svg" width="80" height="80" viewBox="0 0 80 80"><defs><style>.cls-1{fill:#233676;}</style></defs><path class="cls-1" d="M40,80A40,40,0,1,1,80,40,40,40,0,0,1,40,80ZM40,4.17A35.83,35.83,0,1,0,75.83,40,35.87,35.87,0,0,0,40,4.17Z"/><path class="cls-1" d="M54.92,22.71a1,1,0,0,0-.67.29,1,1,0,0,0,0,1.37,1,1,0,0,0,1.38,0h0a1,1,0,0,0,0-1.37A1,1,0,0,0,54.92,22.71Z"/><path class="cls-1" d="M62.63,18.08a.82.82,0,0,0-.72-.71,19.08,19.08,0,0,0-2.74-.11,26.92,26.92,0,0,0-13.59,4.68l-4.09-1.75a.77.77,0,0,0-.4-.07.9.9,0,0,0-.28.08,11,11,0,0,0-2.92,2.57,42.44,42.44,0,0,0-3.33,4.33c-2.18,3.24-4.13,6.84-4.52,9.55a.81.81,0,0,0,.45.84l1.84.92A24,24,0,0,0,31,44.32L26.9,45.4h0l-9,2.46a.81.81,0,0,0,.05,1.58A16.16,16.16,0,0,1,30.56,62.09a.81.81,0,0,0,1.58,0l2.45-9h0l1.06-4c6.19-.59,12.73-3.92,17.91-9.1C60,33.58,63.46,25.27,62.63,18.08ZM40,26.45a33.65,33.65,0,0,0-7.11,10.44l-1.16-.58A29.34,29.34,0,0,1,35.91,28a42.36,42.36,0,0,1,3.19-4.16,11.69,11.69,0,0,1,2.14-2L44,23a35.23,35.23,0,0,0-4,3.42ZM51.5,32.37,49.44,35.8A.81.81,0,0,1,48,35.69a8.26,8.26,0,0,0-1.2-2.48A14.13,14.13,0,0,0,44.24,32a.82.82,0,0,1-.06-1.43l3.46-2.05a.86.86,0,0,1,.44-.12.81.81,0,0,1,.39,1.52l-2.06,1.22a4.51,4.51,0,0,1,1.53,1,4.44,4.44,0,0,1,1,1.49l1.21-2A.81.81,0,1,1,51.5,32.37Zm7.28-2.54a7.65,7.65,0,0,1-9.09-8.37,23.28,23.28,0,0,1,10.16-2.58c.41,0,.82,0,1.23,0A22.44,22.44,0,0,1,58.78,29.83Z"/></svg>