<svg id="Layer_1" data-name="Layer 1" xmlns="http://www.w3.org/2000/svg" width="80" height="80" viewBox="0 0 80 80"><path d="M40,80A40,40,0,1,1,80,40,40,40,0,0,1,40,80ZM40,4.17A35.83,35.83,0,1,0,75.83,40h0A35.87,35.87,0,0,0,40,4.17Z" transform="translate(0 0)"/><path d="M28.06,36.07c2.9,1.5,4.1,1.3,5.29,3.3,1.6,1.4,3.3,6,3.3,6a16.52,16.52,0,0,0-1.3-8.69c-2.2-3.8-9.29-7.29-9.29-7.29S25.26,34.77,28.06,36.07Z" transform="translate(0 0)"/><path d="M66,44.07c-3.5-1.8-6.1-4-10-4-4.1,0-6.5,7.19-6.7,7.29a10.3,10.3,0,0,1,4-2.69c3-1.4,8.69,2,8.69,2s-.4.6-3.3,1.3c-2.89,1.1-7.89,1.4-10,.7-2.4-1.3-2.7-8-2.7-8s-.6-8.79-.7-10.59c-.1-1.6-.79-4.8-2-4-.6,1.2-1.1,8.39-3.3,14.59-2.4,5.89-6.6,8.59-10,10.59a40.81,40.81,0,0,1-8.7,4,33.38,33.38,0,0,0,9.3-.7A15.66,15.66,0,0,0,38,49.86c1.6-2,2.1-3.4,3.3-6,1.3-4.8,2-9.3,2-9.3v4s0,6.3,1.3,10a6.61,6.61,0,0,0,6.69,4,27.23,27.23,0,0,0,10-2,16.78,16.78,0,0,1,9.3-1.3l2.69-4.69C73.32,44.77,69,45.27,66,44.07Z" transform="translate(0 0)"/><path d="M26.06,47.76c.2-3.59.1-5.69.1-5.69,0-3.4-1.8-9.79-1.8-11.89a8.69,8.69,0,0,1,1.3-4.1,7.86,7.86,0,0,1-1.6-1.8,12.45,12.45,0,0,1-1-2.9l-2.6,3.3s.5,1.7.7,2.7,1.3,4.6,1.5,6.19a67.65,67.65,0,0,1,1.2,8.5c0,2.5.3,6.29-2.1,8.09a11.57,11.57,0,0,1-6.59,2.2c-2,0-5.6-.6-6.7-3.4s1.4-7.49,1.4-7.49a32.92,32.92,0,0,0-2.5,4.69,12,12,0,0,0-.59,3.3,6.4,6.4,0,0,0,1.69,3.9c2.2,2.4,6.7,2.7,6.7,2.7a11.8,11.8,0,0,0,8.69-3.4C26.06,49.56,26.06,47.76,26.06,47.76Z" transform="translate(0 0)"/></svg>