<svg id="Layer_1" data-name="Layer 1" xmlns="http://www.w3.org/2000/svg" width="80" height="80" viewBox="0 0 80 80"><defs><style>.cls-1{fill:#233676;}</style></defs><path class="cls-1" d="M40,80A40,40,0,1,1,80,40,40,40,0,0,1,40,80ZM40,4.17A35.83,35.83,0,1,0,75.83,40,35.87,35.87,0,0,0,40,4.17Z"/><path class="cls-1" d="M54.45,27.94h.06l.27,0a7.3,7.3,0,0,1,1,.18l.28.07a5.55,5.55,0,0,0,1.34.15,6.52,6.52,0,0,0,1.12-.09l.21,0a2.58,2.58,0,0,0,.42-.11,2.75,2.75,0,0,0-.81-5.41h-.1a2.42,2.42,0,0,0-.45,0l-.16,0a7.16,7.16,0,0,0-1.65.5l.13-.21a6.44,6.44,0,0,0,.73-2.39l0-.17a3.24,3.24,0,0,0,0-.44,2.86,2.86,0,0,0-2.46-2.82,2.83,2.83,0,0,0-3,2.22,2.12,2.12,0,0,0-.08.41l0,.2a6.54,6.54,0,0,0,.15,2.3,6.33,6.33,0,0,0-1.34-.88L50,21.43a3.12,3.12,0,0,0-.39-.15,3,3,0,0,0-1-.17,2.73,2.73,0,0,0-2.5,1.51,2.81,2.81,0,0,0,1.06,3.58,3,3,0,0,0,.41.24l.13.06a6.47,6.47,0,0,0,2.44.67h.25a7,7,0,0,1,1,.13l.28.05c.14,0,.33,0,.54.06a18.74,18.74,0,0,1-1.58,5.23l0-.09a8,8,0,0,1-.6-1.17c0-.09-.08-.19-.13-.33a7.91,7.91,0,0,0-1.77-2.44L48,28.46a3.35,3.35,0,0,0-.4-.33,3.6,3.6,0,0,0-2.09-.68,3.11,3.11,0,0,0-2.28,1,3.35,3.35,0,0,0,0,4.38,3.51,3.51,0,0,0,.37.4l.13.13A7.88,7.88,0,0,0,46.21,35l.29.11a7.91,7.91,0,0,1,1.2.53l.3.16a4.43,4.43,0,0,0,.79.32,20.23,20.23,0,0,1-5.72,6.3,9,9,0,0,1,.15-1.12c0-.1.05-.2.08-.35a7.83,7.83,0,0,0-.08-3l0-.22c0-.17-.09-.33-.14-.49a3.42,3.42,0,0,0-3.12-2.3,2.81,2.81,0,0,0-.65.07,3.35,3.35,0,0,0-2.51,3.6,3.12,3.12,0,0,0,.06.41,2,2,0,0,0-.35-.21,3.61,3.61,0,0,0-1.66-.41,3.14,3.14,0,0,0-2.62,1.32A3.35,3.35,0,0,0,32.76,44l.38.31.2.14a7.94,7.94,0,0,0,2.78,1.25l.32.06a7.81,7.81,0,0,1,.89.23l-.45.24c-1.67.91-3.74,2-6.72,3.92A8.76,8.76,0,0,1,30.31,49l.07-.35a8,8,0,0,0-.1-3c0-.06-.05-.21-.05-.23a3.82,3.82,0,0,0-.15-.48A3.41,3.41,0,0,0,27,42.62a3.07,3.07,0,0,0-.67.08,3.33,3.33,0,0,0-2.47,3.61,3.7,3.7,0,0,0,.07.51l.05.21c-.12-.07-.24-.15-.37-.21a3.64,3.64,0,0,0-1.64-.4,3.19,3.19,0,0,0-2.64,1.34,3.36,3.36,0,0,0,.62,4.34,3.81,3.81,0,0,0,.41.32l.18.13a8,8,0,0,0,2.79,1.22l.31.06a9.19,9.19,0,0,1,1.27.34l.31.11.08,0a20.63,20.63,0,0,0-3.86,6.32.78.78,0,0,0,.48,1,.79.79,0,0,0,1-.49,19.29,19.29,0,0,1,3-5.13,6.18,6.18,0,0,1,0,.83,2.6,2.6,0,0,1,0,.36,7.8,7.8,0,0,0,.45,3l.07.22a4,4,0,0,0,.21.47,3.47,3.47,0,0,0,3,1.92,3.2,3.2,0,0,0,1-.17,3.36,3.36,0,0,0,2-3.88,2.63,2.63,0,0,0-.1-.36l.29.13a3.69,3.69,0,0,0,1.27.22A3.22,3.22,0,0,0,37,57a3.35,3.35,0,0,0-1.12-4.23,3.68,3.68,0,0,0-.45-.28l-.19-.1a8,8,0,0,0-2.91-.9l-.32,0a8.11,8.11,0,0,1-.84-.1c2.85-1.8,4.79-2.85,6.49-3.78l1-.55v.06c0,.11,0,.22,0,.32a8.2,8.2,0,0,1,0,1.31c0,.1,0,.2,0,.35a7.83,7.83,0,0,0,.42,3l.08.22a2.67,2.67,0,0,0,.2.46,3.42,3.42,0,0,0,3,2h0a3,3,0,0,0,1-.17,3.33,3.33,0,0,0,2.07-3.85c0-.12,0-.22-.07-.32l.07,0a3.22,3.22,0,0,0,.46.21,3.6,3.6,0,0,0,1.29.24A3.22,3.22,0,0,0,50,49.22,3.35,3.35,0,0,0,48.91,45a2.78,2.78,0,0,0-.42-.28l-.2-.11a8,8,0,0,0-2.91-.92l-.32,0a8,8,0,0,1-.92-.13,21.67,21.67,0,0,0,6-6.58,3.55,3.55,0,0,0,1,.57l.07,0,.29.12a8.77,8.77,0,0,1,1.16.6l.3.19a7.81,7.81,0,0,0,2.84.95l.23,0a3.89,3.89,0,0,0,.51,0,3.22,3.22,0,0,0,.87-6.36,3.16,3.16,0,0,0-.5-.1l-.22,0a7.91,7.91,0,0,0-3,.16l-.31.1A8.13,8.13,0,0,1,52,33.5a20.58,20.58,0,0,0,1.78-5.71A4.06,4.06,0,0,0,54.45,27.94ZM26.63,52.83a.27.27,0,0,1-.27.12,2.73,2.73,0,0,1-.73-.16l-.26-.09a11,11,0,0,0-1.46-.4l-.35-.06a6.37,6.37,0,0,1-2.18-1l-.18-.12A2.11,2.11,0,0,1,21,51a1.78,1.78,0,0,1-.4-2.3A1.6,1.6,0,0,1,21.93,48a2,2,0,0,1,.94.23,1.74,1.74,0,0,1,.26.15l.17.12A6.42,6.42,0,0,1,25,50.14l.2.34a12.36,12.36,0,0,0,.88,1.22l.18.22.06.07C26.71,52.51,26.74,52.68,26.63,52.83Zm5.2.22.37,0a6.54,6.54,0,0,1,2.26.7l.21.12a1.32,1.32,0,0,1,.25.16,1.79,1.79,0,0,1,.66,2.24,1.64,1.64,0,0,1-1.5.84,2.29,2.29,0,0,1-.73-.13l-.28-.13-.19-.1A6.43,6.43,0,0,1,31,55.33L30.8,55a10.46,10.46,0,0,0-1-1.1l-.21-.2-.07-.07-.13-.13c-.05-.07-.11-.13-.17-.2-.19-.23-.2-.35-.13-.47a.16.16,0,0,1,.08-.09h0a.59.59,0,0,1,.29-.05,3.3,3.3,0,0,1,.61.08l.27.06A10.91,10.91,0,0,0,31.83,53.05Zm7.7-11.61-.21-.28a6.36,6.36,0,0,1-.93-2.2c0-.05,0-.2,0-.22s0-.2,0-.3a1.79,1.79,0,0,1,1.29-1.95,1.65,1.65,0,0,1,.31,0,1.83,1.83,0,0,1,1.66,1.28,1.49,1.49,0,0,1,.09.3l.05.2a6.52,6.52,0,0,1,.08,2.35l-.09.39a9.69,9.69,0,0,0-.18,1.49c0,.09,0,.18,0,.28v.1c0,.67-.14.81-.33.85h-.07c-.22,0-.49-.47-.63-.72,0-.09-.09-.17-.13-.25A11.4,11.4,0,0,0,39.53,41.44Zm3.28,11.63a1.27,1.27,0,0,1-.48.08h0a1.88,1.88,0,0,1-1.63-1.09c0-.08-.08-.18-.12-.27l-.07-.21a6.6,6.6,0,0,1-.35-2.31c0-.14,0-.27,0-.41a9.35,9.35,0,0,0,0-1.5c0-.09,0-.18,0-.28V47c0-.68,0-.83.23-.89h.09c.22,0,.53.43.68.64l.16.23a9,9,0,0,0,.93,1.18l.25.27a6.34,6.34,0,0,1,1.17,2.06l.08.22c0,.1.05.19.07.29A1.79,1.79,0,0,1,42.81,53.07Zm9.35-18a10.35,10.35,0,0,0,1.5-.3l.34-.11a6,6,0,0,1,1.49-.17,6.58,6.58,0,0,1,.9.06l.21,0,.3.06a1.67,1.67,0,0,1-.45,3.31,2,2,0,0,1-.33,0l-.19,0a6.3,6.3,0,0,1-2.23-.73l-.34-.21A10.52,10.52,0,0,0,52,36.25l-.27-.12-.08,0c-.61-.28-.71-.42-.68-.61s.26-.31.9-.41Zm4-10.08a5.19,5.19,0,0,1,1.74-.63l.17,0,.23,0h.05a1.3,1.3,0,0,1,1.33,1,1.31,1.31,0,0,1-1,1.39l-.25.06-.15,0a5.35,5.35,0,0,1-1.84,0l-.31-.09a8.11,8.11,0,0,0-1.21-.2l-.3,0c-.38-.05-.54-.09-.55-.2s.11-.15.52-.36l.19-.09a7.33,7.33,0,0,0,1.1-.6Zm-3.61.87a.36.36,0,0,1-.19,0,3.49,3.49,0,0,1-.44-.05l-.23,0a7.07,7.07,0,0,0-1.23-.15h-.29a4.94,4.94,0,0,1-1.78-.5L48.22,25l-.2-.12a1.31,1.31,0,0,1-.54-1.61,1.32,1.32,0,0,1,1.62-.55l.19.08.16.08A5.13,5.13,0,0,1,50.93,24l.21.25a7.42,7.42,0,0,0,.87.89l.22.2c.23.22.35.36.35.42Zm1.12-1.38h-.05s-.11-.15-.2-.6l0-.22a11,11,0,0,0-.28-1.21c0-.1-.07-.21-.1-.27a5.15,5.15,0,0,1-.14-1.86l0-.18a1.89,1.89,0,0,1,0-.23,1.3,1.3,0,0,1,1.21-1.06h.11a1.31,1.31,0,0,1,1.07,1.33,2.18,2.18,0,0,1,0,.24v.15a5.26,5.26,0,0,1-.53,1.77,2.54,2.54,0,0,0-.16.28,7.4,7.4,0,0,0-.54,1.11L54,24C53.92,24.09,53.77,24.45,53.67,24.45Z"/></svg>