<svg id="Layer_1" data-name="Layer 1" xmlns="http://www.w3.org/2000/svg" width="80" height="80" viewBox="0 0 80 80"><defs><style>.cls-1{fill:#233676;}.cls-2{fill:none;}</style></defs><path class="cls-1" d="M40,80A40,40,0,1,1,80,40,40,40,0,0,1,40,80ZM40,4.17A35.83,35.83,0,1,0,75.83,40,35.87,35.87,0,0,0,40,4.17Z"/><path class="cls-2" d="M55.64,48.63a1.63,1.63,0,1,0,1.62,1.63A1.63,1.63,0,0,0,55.64,48.63Z"/><path class="cls-2" d="M52.93,45.92A1.09,1.09,0,1,0,54,47,1.09,1.09,0,0,0,52.93,45.92Z"/><path class="cls-2" d="M52.93,45.92A1.09,1.09,0,1,0,54,47,1.09,1.09,0,0,0,52.93,45.92Z"/><path class="cls-2" d="M55.64,48.63a1.63,1.63,0,1,0,1.62,1.63A1.63,1.63,0,0,0,55.64,48.63Z"/><path class="cls-2" d="M58.35,35.59a30.13,30.13,0,0,0-5.61-.47,30.29,30.29,0,0,0-5.61.47,7.27,7.27,0,0,0-1.56.45l-.13.08.1,1.47a18.58,18.58,0,0,1,6.9,1.65,18.85,18.85,0,0,0,7.28,1.54L60,36.12A.42.42,0,0,0,59.9,36,7,7,0,0,0,58.35,35.59Z"/><path class="cls-1" d="M61.3,35a2.33,2.33,0,0,0-.7-.47A8.23,8.23,0,0,0,58.67,34a31.64,31.64,0,0,0-5.93-.49,31.72,31.72,0,0,0-5.93.49,8.23,8.23,0,0,0-1.93.58,2.33,2.33,0,0,0-.7.47,1.29,1.29,0,0,0-.37,1l1.62,24.38a1.73,1.73,0,0,0,.73,1.23,4.63,4.63,0,0,0,1.45.65,20.3,20.3,0,0,0,5.13.5,20.39,20.39,0,0,0,5.14-.5,4.57,4.57,0,0,0,1.44-.65,1.73,1.73,0,0,0,.73-1.23L61.68,36A1.29,1.29,0,0,0,61.3,35ZM52.93,48.09A1.09,1.09,0,1,1,54,47,1.09,1.09,0,0,1,52.93,48.09Zm2.71,3.79a1.63,1.63,0,1,1,1.62-1.62A1.63,1.63,0,0,1,55.64,51.88Zm1.08-6.25a.79.79,0,0,1-.8-.79.8.8,0,0,1,1.6,0A.79.79,0,0,1,56.72,45.63Zm3-4.85a18.85,18.85,0,0,1-7.28-1.54,18.58,18.58,0,0,0-6.9-1.65l-.1-1.47.13-.08a7.27,7.27,0,0,1,1.56-.45,30.29,30.29,0,0,1,5.61-.47,30.13,30.13,0,0,1,5.61.47A7,7,0,0,1,59.9,36a.42.42,0,0,1,.13.08Z"/><path class="cls-1" d="M39.81,31.22l-4.65-9.14a1.69,1.69,0,0,0,1.07-1.61V18.86a1.83,1.83,0,0,0-1.8-1.8H24.94a1.81,1.81,0,0,0-1.81,1.8v1.61a1.65,1.65,0,0,0,1,1.61l-4.6,9.13a3.28,3.28,0,0,0-1.42,2.66V59.7a3.24,3.24,0,0,0,3.24,3.24H38a3.21,3.21,0,0,0,3.18-3.24V33.87A3.35,3.35,0,0,0,39.81,31.22ZM39.87,37a15.46,15.46,0,0,1-7.52,2.17A13.29,13.29,0,0,1,27.48,38a16,16,0,0,0-5.75-1.31,11.28,11.28,0,0,0-2.24.23V33.87a1.8,1.8,0,0,1,1-1.67l0,0L26.22,21h-.57c-.37,0-.88,0-1.1-.18a.42.42,0,0,1-.12-.33V18.86a.48.48,0,0,1,.51-.5h9.49a.47.47,0,0,1,.5.5v1.61a.42.42,0,0,1-.12.33c-.22.21-.73.19-1.1.18h-.57l5.6,11.15,0,.05,0,0a1.84,1.84,0,0,1,1,1.67Z"/></svg>