<svg id="Layer_1" data-name="Layer 1" xmlns="http://www.w3.org/2000/svg" width="80" height="80" viewBox="0 0 80 80"><defs><style>.cls-1{fill:#233676;}</style></defs><path class="cls-1" d="M40,80A40,40,0,1,1,80,40,40,40,0,0,1,40,80ZM40,4.17A35.83,35.83,0,1,0,75.83,40,35.87,35.87,0,0,0,40,4.17Z"/><path class="cls-1" d="M40,17.25c-12.13,0-22.1,10.24-22.75,23.21v0c0,3.82,2.89,6.73,6,9.25,1.45,1.19,3,2.31,4.32,3.4A5,5,0,0,0,27,55.43c0,3.21,3,5.69,6.5,5.69A7.51,7.51,0,0,0,34.91,61a10.25,10.25,0,0,0,.91.65,8.3,8.3,0,0,0,8.36,0c.3-.19.6-.41.91-.65a7.31,7.31,0,0,0,1.4.15c3.52,0,6.5-2.48,6.5-5.69a5.2,5.2,0,0,0-.54-2.28c1.36-1.09,2.87-2.21,4.32-3.4,3.09-2.52,6-5.43,6-9.25v0C62.1,27.49,52.13,17.26,40,17.25ZM53.92,27.62a.8.8,0,0,1,.65.28c.24.27.48.55.71.83a.81.81,0,1,1-1.26,1c-.21-.27-.44-.53-.66-.78A.81.81,0,0,1,53.92,27.62Zm-11.6-6.83h.08l.15,0a22,22,0,0,1,4.16,1.34,21.54,21.54,0,0,1,3.78,2.12c.6.42,1.17.86,1.73,1.33a.81.81,0,1,1-1,1.24c-.52-.44-1.05-.85-1.6-1.24a21.55,21.55,0,0,0-3.51-2,20.26,20.26,0,0,0-3.84-1.24A.81.81,0,0,1,42.32,20.79Zm-3.15,5.52a.82.82,0,1,1,1.63,0V45.9a.82.82,0,1,1-1.63,0ZM28.62,55.43a3.55,3.55,0,0,1,.23-1.2c1.88,1.49,3,3.61,4.49,5.26C30.65,59.42,28.62,57.57,28.62,55.43Zm4.08-6.92-10-10.75a.82.82,0,0,1,.54-1.38h.08a.77.77,0,0,1,.57.27l10,10.76A.81.81,0,1,1,32.7,48.51ZM43.33,60.23a5.91,5.91,0,0,1-3.33.89,5.91,5.91,0,0,1-3.33-.89,11.29,11.29,0,0,1-2.76-2.58A9,9,0,0,1,40,55.43h0a9,9,0,0,1,6.1,2.23A11.6,11.6,0,0,1,43.33,60.23Zm3.33-.74a46.14,46.14,0,0,1,4.48-5.25,3.3,3.3,0,0,1,.22,1.19C51.36,57.57,49.34,59.42,46.66,59.49ZM57.25,37.76l-10,10.75a.81.81,0,1,1-1.19-1.1l10-10.76a.83.83,0,0,1,.55-.27h.09A.81.81,0,0,1,57.25,37.76Z"/></svg>