<svg id="Layer_1" data-name="Layer 1" xmlns="http://www.w3.org/2000/svg" width="80" height="80" viewBox="0 0 80 80"><defs><style>.cls-1{fill:#233676;}</style></defs><path class="cls-1" d="M40,80A40,40,0,1,1,80,40,40,40,0,0,1,40,80ZM40,4.17A35.83,35.83,0,1,0,75.83,40,35.87,35.87,0,0,0,40,4.17Z"/><path class="cls-1" d="M60,17.76l-.44-.38a2.13,2.13,0,0,0-2.72,0l-7,5.91-.85-.72a2.16,2.16,0,0,0-1.54-.5,2.12,2.12,0,0,0-1.44.74L43.53,25.6l-4.67.74L19.94,48.56a2.76,2.76,0,0,0,.27,3.89L32,62.48a2.79,2.79,0,0,0,1.78.65,2.74,2.74,0,0,0,2.1-1l19-22.26-.2-5,2.32-2.72a2.11,2.11,0,0,0-.24-3l-1-.82,4.71-7.91A2.1,2.1,0,0,0,60,17.76ZM49.84,25.6l1.2,1-2.23,2.62-1.2-1Zm2.51,2.11,1.07.93-2.23,2.62-1.08-.91Zm-5.12-3.82a.43.43,0,0,1,.59-.05l.73.63-2.24,2.64-1.05-.9ZM36.53,58.77,23.18,47.4,39.41,28.34,52.75,39.73ZM55.65,31.05l-2,2.32-1.17-1,2.24-2.64.86.74a.39.39,0,0,1,.15.28A.43.43,0,0,1,55.65,31.05ZM59,19.58l-4.54,7.64-3.34-2.84,6.82-5.69a.41.41,0,0,1,.52,0l.44.38A.4.4,0,0,1,59,19.58Z"/></svg>