<svg id="Layer_1" data-name="Layer 1" xmlns="http://www.w3.org/2000/svg" width="80" height="80" viewBox="0 0 80 80"><defs><style>.cls-1{fill:#233676;}</style></defs><path class="cls-1" d="M40,80A40,40,0,1,1,80,40,40,40,0,0,1,40,80ZM40,4.17A35.83,35.83,0,1,0,75.83,40,35.87,35.87,0,0,0,40,4.17Z"/><path class="cls-1" d="M57.87,24.56H43.31A27,27,0,0,1,44,21c.4-1.5.79-2.69.79-2.69a.81.81,0,0,0-.77-1.07h-6.5a.83.83,0,0,0-.67.35A7,7,0,0,0,36,21.77a12.49,12.49,0,0,0,.41,2.79H22.13a4.88,4.88,0,1,0,0,9.75h.81V45.69c0,5.31,3.19,9.58,6.85,12.5s7.7,4.56,10.21,4.56,6.56-1.65,10.21-4.56,6.85-7.19,6.85-12.5V34.31h.81a4.88,4.88,0,1,0,0-9.75ZM38.16,18.88H43c-.15.5-.25.76-.5,1.72a23.19,23.19,0,0,0-.7,4H38.2a9.15,9.15,0,0,1-.57-2.84A6.14,6.14,0,0,1,38.16,18.88Zm14.4,31.94a17.74,17.74,0,0,1-2.18,2.9,22.11,22.11,0,0,1-2.61,2.43A24.69,24.69,0,0,1,45,58.09a.81.81,0,1,1-.83-1.4,22.85,22.85,0,0,0,2.63-1.81,20.46,20.46,0,0,0,2.41-2.25,17,17,0,0,0,2-2.65.8.8,0,0,1,.64-.4h.09A.81.81,0,0,1,52.56,50.82Zm1.5-3.37c-.09.3-.19.59-.3.88a.81.81,0,1,1-1.51-.57c.09-.26.18-.51.26-.78a.82.82,0,0,1,.76-.59A.81.81,0,0,1,54.06,47.45Zm3.81-14.76H22.13a3.25,3.25,0,0,1,0-6.5H57.87a3.25,3.25,0,1,1,0,6.5Z"/></svg>