<svg id="Layer_1" data-name="Layer 1" xmlns="http://www.w3.org/2000/svg" width="80" height="80" viewBox="0 0 80 80"><defs><style>.cls-1{fill:#233676;}</style></defs><path class="cls-1" d="M40,80A40,40,0,1,1,80,40,40,40,0,0,1,40,80ZM40,4.17A35.83,35.83,0,1,0,75.83,40,35.87,35.87,0,0,0,40,4.17Z"/><path class="cls-1" d="M45.37,40.54a12.48,12.48,0,0,0,3.14-8.14c0-6.5-5.85-15.15-8.53-15.15S31.46,25.9,31.46,32.4,37.07,43.76,40,43.76C41.55,43.76,43.67,42.5,45.37,40.54Z"/><path class="cls-1" d="M33.15,47.13c-4.6-4.61-14.85-6.58-16.74-4.69s.09,12.14,4.69,16.73a12.43,12.43,0,0,0,8,3.53l.9,0c2.24,0,4.21-.58,5.21-1.56s1.71-3.5,1.53-6.09A12.46,12.46,0,0,0,33.15,47.13Z"/><path class="cls-1" d="M63.59,42.44c-1.89-1.89-12.17.08-16.77,4.69a12.37,12.37,0,0,0-3.52,8c-.18,2.59.42,5,1.53,6.1s3,1.56,5.2,1.56c.3,0,.6,0,.9,0a12.41,12.41,0,0,0,8-3.55C63.5,54.57,65.48,44.33,63.59,42.44Z"/></svg>