<svg id="Layer_1" data-name="Layer 1" xmlns="http://www.w3.org/2000/svg" width="80" height="80" viewBox="0 0 80 80"><defs><style>.cls-1{fill:#233676;}</style></defs><path class="cls-1" d="M40,80A40,40,0,1,1,80,40,40,40,0,0,1,40,80ZM40,4.17A35.83,35.83,0,1,0,75.83,40,35.87,35.87,0,0,0,40,4.17Z"/><path class="cls-1" d="M34.92,51a4.15,4.15,0,1,0-.32,5.86v0A4.16,4.16,0,0,0,34.92,51Z"/><path class="cls-1" d="M45.91,43.37a4.15,4.15,0,1,0-.32,5.86h0a4.15,4.15,0,0,0,.33-5.85Z"/><path class="cls-1" d="M54.68,33.28a4.15,4.15,0,1,0-.31,5.86l0,0a4.15,4.15,0,0,0,.35-5.84Z"/><path class="cls-1" d="M58.64,25.26a5,5,0,0,0-.76-.69l0,0a5.57,5.57,0,0,0,.8-.81,6.79,6.79,0,0,0,1.11-1.94,9.38,9.38,0,0,0,.3-1.07c0-.18.07-.36.09-.54a4.93,4.93,0,0,0,0-.55,2.86,2.86,0,0,0-1-2.08,1.13,1.13,0,0,0-1.55,0l-.1.09a3.5,3.5,0,0,0-.67.86,4.51,4.51,0,0,0-.32.79c-.11.51-.16,1-.24,1.51s-.18,1-.3,1.51c0,.26-.11.53-.17.79l-.09.41c0,.08,0,.16,0,.23-3.75-.39-8.32,3.7-10.3,5.48a9,9,0,0,0-2.86,5,4.51,4.51,0,0,1-2.94,3.29,9.16,9.16,0,0,0-5.09,4.54A4.52,4.52,0,0,1,31,44.67,9,9,0,0,0,25.72,47c-2.53,2.27-9.26,8.31-5.39,12.63C22,61.45,25.47,62.53,29,62.72s7.09-.5,8.93-2.17a9.29,9.29,0,0,0,1.78-2.21,6.35,6.35,0,0,1,4.48-3.19,9.13,9.13,0,0,0,7.43-6.66,6.31,6.31,0,0,1,3.7-4.12,9,9,0,0,0,2.38-1.53C61.41,39.5,62,29,58.64,25.26ZM35.7,58.09a5.81,5.81,0,0,1-7.76-8.64h0a5.81,5.81,0,0,1,7.76,8.65Zm11-7.64a5.81,5.81,0,1,1-7.76-8.64l.06-.06a5.81,5.81,0,0,1,7.7,8.7Zm8.77-10.09a5.81,5.81,0,0,1-7.75-8.65h0a5.81,5.81,0,0,1,7.75,8.65Z"/></svg>