<svg id="Layer_1" data-name="Layer 1" xmlns="http://www.w3.org/2000/svg" width="80" height="80" viewBox="0 0 80 80"><defs><style>.cls-1{fill:#e90000;}.cls-2{fill:#00a400;}</style></defs><path class="cls-1" d="M50.21,61.34a19.89,19.89,0,0,1-6.72-4.44,20.14,20.14,0,0,1,0-28.43l.26-.26a.56.56,0,0,0,.14-.56l-.4-1.17A.53.53,0,0,0,43,26.1H38.83V22a.54.54,0,0,0-.37-.51l-1.18-.39a.54.54,0,0,0-.56.13l-.26.26a24.15,24.15,0,0,0,13.47,41H50a.55.55,0,0,0,.2-1.06Z"/><path class="cls-2" d="M50.05,17.79A8.81,8.81,0,0,0,44.17,20l-.81-.81a5.49,5.49,0,0,0-3.9-1.62h0a5.5,5.5,0,0,0-3.91,1.62L34.38,20.4a.53.53,0,0,0-.15.51.54.54,0,0,0,.36.39l3.15,1.05v4.3a.59.59,0,0,0,.16.39.55.55,0,0,0,.38.16h4.3l1.05,3.15a.54.54,0,0,0,.4.36l.12,0a.59.59,0,0,0,.39-.16l1.17-1.18a5.53,5.53,0,0,0,0-7.81h0l-.77-.77a7.72,7.72,0,0,1,5.11-1.92.55.55,0,0,0,.55-.54A.55.55,0,0,0,50.05,17.79Z"/><path d="M40,80A40,40,0,1,1,80,40,40,40,0,0,1,40,80ZM40,4.17A35.83,35.83,0,1,0,75.83,40h0A35.87,35.87,0,0,0,40,4.17Z"/></svg>