<svg id="Layer_1" data-name="Layer 1" xmlns="http://www.w3.org/2000/svg" width="80" height="80" viewBox="0 0 80 80"><defs><style>.cls-1{fill:#e90000;}.cls-2{fill:#00a400;}</style></defs><path class="cls-1" d="M40.45,61.34a20.11,20.11,0,0,1-6.71-32.87l.26-.26a.57.57,0,0,0,.13-.56l-.39-1.17a.56.56,0,0,0-.52-.38H29.07V22a.54.54,0,0,0-.37-.51l-1.18-.39a.51.51,0,0,0-.55.13l-.26.26a24.17,24.17,0,0,0,0,34.15,23.89,23.89,0,0,0,13.46,6.8h.08a.56.56,0,0,0,.53-.41A.56.56,0,0,0,40.45,61.34Z"/><path class="cls-2" d="M40.29,17.79A8.83,8.83,0,0,0,34.41,20l-.81-.81a5.49,5.49,0,0,0-3.9-1.62h0a5.52,5.52,0,0,0-3.91,1.62L24.62,20.4a.53.53,0,0,0-.15.51.56.56,0,0,0,.36.39L28,22.35v4.3a.59.59,0,0,0,.16.39.55.55,0,0,0,.39.16h4.29l1,3.15a.54.54,0,0,0,.4.36l.12,0a.55.55,0,0,0,.39-.16L36,29.38a5.52,5.52,0,0,0,0-7.81h0l-.77-.77a7.72,7.72,0,0,1,5.11-1.92.54.54,0,0,0,.55-.54A.55.55,0,0,0,40.29,17.79Z"/><path class="cls-1" d="M60,61.34a19.89,19.89,0,0,1-6.72-4.44,20.12,20.12,0,0,1,0-28.43l.26-.26a.53.53,0,0,0,.13-.56l-.39-1.17a.54.54,0,0,0-.52-.38H48.59V22a.53.53,0,0,0-.38-.51L47,21.05a.53.53,0,0,0-.56.13l-.26.26a24.18,24.18,0,0,0,0,34.15,23.93,23.93,0,0,0,13.46,6.8h.09a.54.54,0,0,0,.52-.41A.55.55,0,0,0,60,61.34Z"/><path class="cls-2" d="M59.81,17.79A8.81,8.81,0,0,0,53.93,20l-.81-.81a5.5,5.5,0,0,0-3.91-1.62h0a5.49,5.49,0,0,0-3.9,1.62L44.13,20.4a.55.55,0,0,0-.14.51.54.54,0,0,0,.36.39l3.15,1.05v4.3a.55.55,0,0,0,.54.55h4.3l1,3.15a.54.54,0,0,0,.39.36l.13,0a.55.55,0,0,0,.38-.16l1.18-1.18a5.53,5.53,0,0,0,0-7.81h0l-.77-.77a7.72,7.72,0,0,1,5.11-1.92.55.55,0,0,0,.55-.54A.55.55,0,0,0,59.81,17.79Z"/><path d="M40,80A40,40,0,1,1,80,40,40,40,0,0,1,40,80ZM40,4.17A35.83,35.83,0,1,0,75.83,40h0A35.87,35.87,0,0,0,40,4.17Z"/></svg>