<svg id="Layer_1" data-name="Layer 1" xmlns="http://www.w3.org/2000/svg" width="80" height="80" viewBox="0 0 80 80"><defs><style>.cls-1{fill:#233676;}</style></defs><path class="cls-1" d="M40,80A40,40,0,1,1,80,40,40,40,0,0,1,40,80ZM40,4.17A35.83,35.83,0,1,0,75.83,40,35.87,35.87,0,0,0,40,4.17Z"/><path class="cls-1" d="M36.31,31.57s-2.66-6.39-7.28-7c0,0,.69.76,1.78,2.14,3.2,4.1,9.83,13.68,12.13,25.4,0,0,3.36-27.82,18.48-34.73,0,0-13.35,14.75-16.33,45.37h-4.3s-.93-18.11-9.14-28.56c0,0-6.35.56-8.59-3.74s-1.68-8.77-4.48-13.07C39.36,15.64,36.31,31.57,36.31,31.57Z"/></svg>