<svg id="Layer_1" data-name="Layer 1" xmlns="http://www.w3.org/2000/svg" width="80" height="80" viewBox="0 0 80 80"><defs><style>.cls-1{fill:#233676;}</style></defs><path class="cls-1" d="M40,80A40,40,0,1,1,80,40,40,40,0,0,1,40,80ZM40,4.17A35.83,35.83,0,1,0,75.83,40,35.87,35.87,0,0,0,40,4.17Z"/><path class="cls-1" d="M43.57,54.42l0,.09-1.37,2.74c-.34-1.18-.75-2.51-1.14-3.77a2.76,2.76,0,0,0,1.32-1.29,17.48,17.48,0,0,0,1.24,2.23Z"/><path class="cls-1" d="M47.25,39.2a12.6,12.6,0,0,1,1.87-1.35C53,35.53,57.37,34,61.52,32.11c.37.26,1,12.74,0,18.54-.67,3.84-3.71,6-7.57,6a12.66,12.66,0,0,1-5.07-1.13c2.56-5.22,5.12-10.41,8-16.26-5.69,6.57-8,14.31-11.57,21.39-.22-.7-.45-1.4-.69-2.11L46,55.77h0a6.26,6.26,0,0,0,.64-1.3h0c0-.33-.16-.69-.75-1.56-2.9-4.33-2.75-9.1.23-12.58A8.41,8.41,0,0,0,47.25,39.2Z"/><path class="cls-1" d="M44.86,32.45c1,1.79,1.39,3.43.27,4.92-.32.3-.63.61-.92.93l-.44.33c-2.35,1.63-3.41,4.7-3.45,7.58h0A42.63,42.63,0,0,1,39.85,51c-3.28-8.59-7.4-16.76-13.69-23.62,1.87,3.26,4,6.41,5.54,9.81,1.95,4.21,3.52,8.6,5.2,12.92.81,1.72,3.54,11.3,3.54,11.3l-2.09,1.39c-.49-5.34-1.31-8-1.76-9.09a5.16,5.16,0,0,1-1.36.52,13,13,0,0,1-3,.37c-7.36,0-13.44-6.48-14.09-14.86-.7-9.09,1.21-18.28,1.45-22.44,8.62,2.36,16.57,5.5,22.89,11.79A16.23,16.23,0,0,1,44.86,32.45Z"/></svg>