<svg id="Layer_1" data-name="Layer 1" xmlns="http://www.w3.org/2000/svg" width="80" height="80" viewBox="0 0 80 80"><defs><style>.cls-1{fill:#233676;}</style></defs><path class="cls-1" d="M40,80A40,40,0,1,1,80,40,40,40,0,0,1,40,80ZM40,4.17A35.83,35.83,0,1,0,75.83,40,35.87,35.87,0,0,0,40,4.17Z"/><path class="cls-1" d="M61.77,17.35a20.54,20.54,0,0,0-3.14.6,11.77,11.77,0,0,0-5.26,2.67,7.3,7.3,0,0,0-2.28,3.94,3.82,3.82,0,0,0,.55,2.65L50.25,28.6a12.68,12.68,0,0,0-.47-5.15,21.51,21.51,0,0,0-1.05-3l-.41-.89-.8.57a22.27,22.27,0,0,0-2.43,2.09,11.82,11.82,0,0,0-3.21,4.94,7.33,7.33,0,0,0,0,4.56A3.79,3.79,0,0,0,44.44,34l.34.07-2.84,2.84a12.73,12.73,0,0,0-.47-5.16,21.06,21.06,0,0,0-1-3l-.4-.89-.81.56a21.69,21.69,0,0,0-2.42,2.09,11.78,11.78,0,0,0-3.22,4.95,7.3,7.3,0,0,0,0,4.55,3.83,3.83,0,0,0,2.57,2.32l.34.07L33.55,45.3a12.89,12.89,0,0,0-.46-5.16,21.78,21.78,0,0,0-1.06-3l-.41-.9-.8.57a22.79,22.79,0,0,0-2.42,2.09,11.81,11.81,0,0,0-3.22,4.95,7.3,7.3,0,0,0,0,4.55,3.85,3.85,0,0,0,2.57,2.32l.34.07L17.5,61.35a.81.81,0,1,0,1.12,1.17l0,0L29.23,51.92c0,.11,0,.22.07.33a3.81,3.81,0,0,0,2.32,2.57,7.3,7.3,0,0,0,4.55,0,11.86,11.86,0,0,0,4.95-3.21,22.27,22.27,0,0,0,2.09-2.43l.57-.79-.9-.42a22.64,22.64,0,0,0-3-1.05,12.89,12.89,0,0,0-5.16-.46l2.92-2.92c0,.11,0,.22.07.34A3.83,3.83,0,0,0,40,46.44a7.3,7.3,0,0,0,4.55,0,11.78,11.78,0,0,0,4.94-3.22,22.27,22.27,0,0,0,2.1-2.42l.57-.8-.9-.41a21.06,21.06,0,0,0-3-1,12.59,12.59,0,0,0-5.17-.46l2.85-2.85c0,.11,0,.23.07.34a3.79,3.79,0,0,0,2.32,2.57,7.3,7.3,0,0,0,4.55,0,11.82,11.82,0,0,0,4.94-3.21,21,21,0,0,0,2.09-2.43l.57-.8-.89-.41a22.64,22.64,0,0,0-3-1.05,13,13,0,0,0-5.17-.46l1.4-1.4a3.9,3.9,0,0,0,2.66.56,7.36,7.36,0,0,0,3.93-2.29,11.74,11.74,0,0,0,2.68-5.26,22.13,22.13,0,0,0,.6-3.14l.09-1ZM31.83,45.61a5.83,5.83,0,0,1-1.71,3.1,2.18,2.18,0,0,1-3.43-.93,5.75,5.75,0,0,1,.06-3.53A10.77,10.77,0,0,1,29.55,40a11.08,11.08,0,0,1,1.37-1.18,10.21,10.21,0,0,1,.6,1.71A10.79,10.79,0,0,1,31.83,45.61Zm12.77-6a13.78,13.78,0,0,1,3.23.5,12,12,0,0,1,1.71.59,9.76,9.76,0,0,1-1.18,1.37,10.73,10.73,0,0,1-4.22,2.8,5.81,5.81,0,0,1-3.54.07,2.18,2.18,0,0,1-.91-3.44,5.78,5.78,0,0,1,3.09-1.71A6.25,6.25,0,0,1,44.6,39.6Zm3.93-10.68A5.86,5.86,0,0,1,46.82,32a2.18,2.18,0,0,1-3.44-.92,5.8,5.8,0,0,1,.07-3.54,10.59,10.59,0,0,1,2.8-4.21,10.47,10.47,0,0,1,1.36-1.18,10.21,10.21,0,0,1,.6,1.71A10.67,10.67,0,0,1,48.53,28.92Zm12-8a10.84,10.84,0,0,1-2.25,4.54,5.85,5.85,0,0,1-3,1.82,2,2,0,0,1-1.84-.56.68.68,0,0,0-.12-.12,2.06,2.06,0,0,1-.56-1.84,5.83,5.83,0,0,1,1.83-3,10.64,10.64,0,0,1,4.53-2.26,10.86,10.86,0,0,1,1.78-.34A9.7,9.7,0,0,1,60.49,21Z"/></svg>