<svg xmlns="http://www.w3.org/2000/svg" viewBox="0 0 64.9 65"><defs><style>.cls-1{fill:#3e4347;}.cls-2{fill:#ffe62e;}.cls-3{fill:#ed4c5c;}</style></defs><title>de</title><g id="Layer_2" data-name="Layer 2"><g id="Layer_1-2" data-name="Layer 1"><path class="cls-1" d="M32.5,0A32.63,32.63,0,0,0,1.8,21.7H63.1A32.4,32.4,0,0,0,32.5,0Z"/><path class="cls-2" d="M32.5,65A32.49,32.49,0,0,0,63.2,43.3H1.8A32.49,32.49,0,0,0,32.5,65Z"/><path class="cls-3" d="M1.8,21.7A32.21,32.21,0,0,0,0,32.5,34.44,34.44,0,0,0,1.8,43.3H63.1a32.21,32.21,0,0,0,1.8-10.8,34.44,34.44,0,0,0-1.8-10.8H1.8"/></g></g></svg>