<svg id="Layer_1" data-name="Layer 1" xmlns="http://www.w3.org/2000/svg" width="0.56cm" height="1.61cm" viewBox="0 0 16 45.5"><defs><style>.cls-1{fill:#233676;}</style></defs><polygon class="cls-1" points="8.8 45.5 8.8 35.2 7.3 35.2 7.3 45.5 8.8 45.5"/><path class="cls-1" d="M30.7,20,29,21.1h0l-2.9,1.8a5.58,5.58,0,0,0-2.6,4.7v.6l1.7-1.1h0l2.9-1.8a5.58,5.58,0,0,0,2.6-4.7Z" transform="translate(-14.7 0)"/><path class="cls-1" d="M23.5,17.1,25.2,16h0l2.9-1.8a5.58,5.58,0,0,0,2.6-4.7V8.9l-4.6,2.9a5.58,5.58,0,0,0-2.6,4.7Z" transform="translate(-14.7 0)"/><path class="cls-1" d="M30.7,14.4,29,15.5h0l-2.9,1.8A5.58,5.58,0,0,0,23.5,22v.6l1.7-1.1h0l2.9-1.8A5.58,5.58,0,0,0,30.7,15Z" transform="translate(-14.7 0)"/><path class="cls-1" d="M29,26.6l-2.9,1.8a5.58,5.58,0,0,0-2.6,4.7v.6l4.6-2.9a5.58,5.58,0,0,0,2.6-4.7v-.6L29,26.6Z" transform="translate(-14.7 0)"/><path class="cls-1" d="M17.4,25.3l2.8,1.8h0l1.7,1.1v-.6a5.58,5.58,0,0,0-2.6-4.7l-2.8-1.8h0L14.8,20v.6A5.72,5.72,0,0,0,17.4,25.3Z" transform="translate(-14.7 0)"/><path class="cls-1" d="M17.4,19.7l2.8,1.8h0l1.7,1.1V22a5.58,5.58,0,0,0-2.6-4.7l-2.8-1.8h0l-1.7-1.1V15A5.58,5.58,0,0,0,17.4,19.7Z" transform="translate(-14.7 0)"/><path class="cls-1" d="M17.4,30.8,22,33.7v-.6a5.58,5.58,0,0,0-2.6-4.7l-2.8-1.8h0l-1.7-1.1v.6A5.16,5.16,0,0,0,17.4,30.8Z" transform="translate(-14.7 0)"/><path class="cls-1" d="M17.4,14.2,20.2,16h0l1.7,1.1v-.6a5.58,5.58,0,0,0-2.6-4.7L14.7,8.9v.6A6.08,6.08,0,0,0,17.4,14.2Z" transform="translate(-14.7 0)"/><path class="cls-1" d="M22.8,9.3l.1-.1a7.38,7.38,0,0,0,1.5-4.5A7.38,7.38,0,0,0,22.9.2L22.8,0l-.1.1a7.38,7.38,0,0,0-1.5,4.5,7.38,7.38,0,0,0,1.5,4.5Z" transform="translate(-14.7 0)"/></svg>