<svg id="Layer_1" data-name="Layer 1" xmlns="http://www.w3.org/2000/svg" width="35.75" height="45.5" viewBox="0 0 35.75 45.5"><defs><style>.cls-1{fill:#233676;}</style></defs><path class="cls-1" d="M51.15,25.23c-3.35-4.71-7.77-8-12.24-8s-8.9,3.27-12.25,8A30.59,30.59,0,0,0,21,42.44c0,12.47,8.49,20.31,17.88,20.31s17.87-7.84,17.87-20.31A30.59,30.59,0,0,0,51.15,25.23ZM50.72,35a24,24,0,0,0-3.11-6.13,17.1,17.1,0,0,0-4.23-4.29.81.81,0,0,1,.46-1.49.74.74,0,0,1,.45.15,18.68,18.68,0,0,1,4.65,4.69,25.86,25.86,0,0,1,3.32,6.55v0a.82.82,0,0,1-.54,1A.81.81,0,0,1,50.72,35Zm2,6a.82.82,0,0,1-.89-.74c0-.59-.13-1.18-.23-1.76a1,1,0,0,1,0-.17.81.81,0,0,1,1.61-.12c.11.63.2,1.27.25,1.91h0A.82.82,0,0,1,52.71,41Z" transform="translate(-21.03 -17.25)"/></svg>