<svg id="Layer_1" data-name="Layer 1" xmlns="http://www.w3.org/2000/svg" width="43.3" height="22.7" viewBox="0 0 43.3 22.7"><defs><style>.cls-1{fill:#233676;fill-rule:evenodd;}</style></defs><path class="cls-1" d="M33.2,23.6c2.5,0,4.3,1.4,6.5,2.6a11.14,11.14,0,0,0,4.8.4l-1.7,3a11.82,11.82,0,0,0-6.1.9,16.53,16.53,0,0,1-6.5,1.3,4.2,4.2,0,0,1-4.3-2.6,28.58,28.58,0,0,1-.9-6.5V20.1a47.15,47.15,0,0,1-1.3,6.1,14.67,14.67,0,0,1-2.2,3.9,10.27,10.27,0,0,1-4.8,3,21.42,21.42,0,0,1-6.1.4,26.39,26.39,0,0,0,5.6-2.6c2.2-1.4,4.9-3.1,6.5-6.9,1.5-4.1,1.8-8.8,2.2-9.5.8-.5,1.2,1.5,1.3,2.6s.4,6.9.4,6.9.2,4.3,1.7,5.2a12.28,12.28,0,0,0,6.5-.4c1.9-.5,2.2-.9,2.2-.9s-3.7-2.2-5.6-1.3a7.66,7.66,0,0,0-2.6,1.7c.1,0,1.7-4.7,4.4-4.7ZM13.6,16.7s-.5,3.5,1.3,4.3c1.9,1,2.7.9,3.5,2.2,1,.9,2.2,3.9,2.2,3.9a11,11,0,0,0-.9-5.6c-1.4-2.5-6.1-4.8-6.1-4.8ZM10,13.6l1.7-2.2a9.39,9.39,0,0,0,.7,1.9,7.15,7.15,0,0,0,1.1,1.2,5.46,5.46,0,0,0-.9,2.7c0,1.4,1.2,5.5,1.2,7.8a25.82,25.82,0,0,1-.1,3.7,6.13,6.13,0,0,1-1.5,3.2,7.64,7.64,0,0,1-5.6,2.2s-2.9-.2-4.3-1.7a4.19,4.19,0,0,1-1.1-2.6,8.27,8.27,0,0,1,.4-2.2,21.28,21.28,0,0,1,1.6-3.1s-1.6,3.1-.9,4.9,3,2.2,4.3,2.2a8.11,8.11,0,0,0,4.3-1.4c1.5-1.1,1.3-3.7,1.3-5.3a42.72,42.72,0,0,0-.8-5.5c-.2-1.1-.9-3.4-1-4.1s-.4-1.7-.4-1.7Z" transform="translate(-1.2 -11.4)"/></svg>