<svg id="Layer_1" data-name="Layer 1" xmlns="http://www.w3.org/2000/svg" width="45.5" height="33.84" viewBox="0 0 45.5 33.84"><defs><style>.cls-1{fill:#e90000;}.cls-2{fill:#00a400;}</style></defs><path class="cls-1" d="M15.72,38.87a14.85,14.85,0,0,1-5.07-3.35,15.19,15.19,0,0,1,0-21.48l.19-.2a.41.41,0,0,0,.1-.42l-.29-.89a.42.42,0,0,0-.39-.28H7.12V9.12a.4.4,0,0,0-.28-.39L6,8.43a.41.41,0,0,0-.42.1l-.19.2A18.25,18.25,0,0,0,15.51,39.67h.06a.41.41,0,0,0,.39-.3A.42.42,0,0,0,15.72,38.87Z" transform="translate(0 -5.83)"/><path class="cls-2" d="M15.6,6a6.62,6.62,0,0,0-4.44,1.69l-.61-.61a4.15,4.15,0,0,0-3-1.22h0A4.11,4.11,0,0,0,4.65,7.05l-.89.89a.43.43,0,0,0-.11.39.38.38,0,0,0,.27.29l2.38.8v3.24a.42.42,0,0,0,.12.3.45.45,0,0,0,.29.12H10l.79,2.37a.44.44,0,0,0,.3.28h.09a.43.43,0,0,0,.29-.12l.89-.89a4.17,4.17,0,0,0,0-5.9h0l-.58-.58A5.8,5.8,0,0,1,15.6,6.8a.42.42,0,0,0,0-.83Z" transform="translate(0 -5.83)"/><path class="cls-1" d="M30.46,38.87a15,15,0,0,1-5.07-3.35,15.21,15.21,0,0,1,0-21.48l.2-.2a.43.43,0,0,0,.1-.42l-.3-.89a.41.41,0,0,0-.39-.28H21.87V9.12a.41.41,0,0,0-.29-.39l-.88-.3a.43.43,0,0,0-.43.1l-.19.2A18.25,18.25,0,0,0,30.25,39.67h.06a.42.42,0,0,0,.4-.3A.42.42,0,0,0,30.46,38.87Z" transform="translate(0 -5.83)"/><path class="cls-2" d="M30.34,6A6.66,6.66,0,0,0,25.9,7.66l-.61-.61a4.15,4.15,0,0,0-2.95-1.22h0a4.13,4.13,0,0,0-2.95,1.22l-.89.89a.43.43,0,0,0-.11.39.4.4,0,0,0,.27.29l2.38.8v3.24a.42.42,0,0,0,.12.3.45.45,0,0,0,.29.12H24.7l.79,2.37a.44.44,0,0,0,.3.28h.1a.47.47,0,0,0,.29-.12l.88-.89a4.17,4.17,0,0,0,0-5.9h0l-.58-.58A5.82,5.82,0,0,1,30.34,6.8a.42.42,0,1,0,0-.83Z" transform="translate(0 -5.83)"/><path class="cls-1" d="M45.21,38.87a15,15,0,0,1-5.08-3.35,15.21,15.21,0,0,1,0-21.48l.2-.2a.41.41,0,0,0,.1-.42l-.3-.89a.4.4,0,0,0-.39-.28H36.61V9.12a.4.4,0,0,0-.28-.39l-.89-.3a.41.41,0,0,0-.42.1l-.2.2A18.25,18.25,0,0,0,45,39.67h.06a.41.41,0,0,0,.4-.3A.42.42,0,0,0,45.21,38.87Z" transform="translate(0 -5.83)"/><path class="cls-2" d="M45.09,6a6.67,6.67,0,0,0-4.45,1.69L40,7.05a4.11,4.11,0,0,0-3-1.22h0a4.15,4.15,0,0,0-2.95,1.22l-.88.89a.41.41,0,0,0,.16.68l2.37.8v3.24a.41.41,0,0,0,.42.42h3.24l.8,2.37a.41.41,0,0,0,.29.28h.1a.45.45,0,0,0,.29-.12l.89-.89a4.18,4.18,0,0,0,0-5.9h0l-.58-.58A5.8,5.8,0,0,1,45.09,6.8a.42.42,0,0,0,0-.83Z" transform="translate(0 -5.83)"/></svg>