<svg id="Layer_1" data-name="Layer 1" xmlns="http://www.w3.org/2000/svg" width="30.76" height="33.84" viewBox="0 0 30.76 33.84"><defs><style>.cls-1{fill:#e90000;}.cls-2{fill:#00a400;}</style></defs><path class="cls-1" d="M23.09,38.87A15,15,0,0,1,18,35.52,15.21,15.21,0,0,1,18,14l.19-.2a.41.41,0,0,0,.1-.42L18,12.53a.42.42,0,0,0-.39-.28H14.49V9.12a.4.4,0,0,0-.28-.39l-.89-.3a.41.41,0,0,0-.42.1l-.19.2A18.25,18.25,0,0,0,22.88,39.67h.06a.42.42,0,0,0,.4-.3A.42.42,0,0,0,23.09,38.87Z" transform="translate(-7.37 -5.83)"/><path class="cls-2" d="M23,6a6.66,6.66,0,0,0-4.44,1.69l-.61-.61a4.15,4.15,0,0,0-3-1.22h0a4.13,4.13,0,0,0-3,1.22l-.89.89a.43.43,0,0,0-.11.39.4.4,0,0,0,.27.29l2.38.8v3.24a.42.42,0,0,0,.12.3.45.45,0,0,0,.29.12h3.25l.79,2.37a.44.44,0,0,0,.3.28h.09a.47.47,0,0,0,.3-.12l.88-.89a4.17,4.17,0,0,0,0-5.9h0l-.58-.58A5.82,5.82,0,0,1,23,6.8.42.42,0,0,0,23,6Z" transform="translate(-7.37 -5.83)"/><path class="cls-1" d="M37.84,38.87a15,15,0,0,1-5.08-3.35,15.21,15.21,0,0,1,0-21.48l.2-.2a.41.41,0,0,0,.1-.42l-.3-.89a.4.4,0,0,0-.39-.28H29.24V9.12A.41.41,0,0,0,29,8.73l-.89-.3a.41.41,0,0,0-.42.1l-.2.2A18.25,18.25,0,0,0,37.62,39.67h.06a.41.41,0,0,0,.4-.3A.43.43,0,0,0,37.84,38.87Z" transform="translate(-7.37 -5.83)"/><path class="cls-2" d="M37.72,6a6.67,6.67,0,0,0-4.45,1.69l-.61-.61a4.13,4.13,0,0,0-2.95-1.22h0a4.15,4.15,0,0,0-2.95,1.22l-.89.89a.43.43,0,0,0-.11.39.41.41,0,0,0,.28.29l2.37.8v3.24a.41.41,0,0,0,.42.42h3.24l.8,2.37a.41.41,0,0,0,.29.28h.1a.45.45,0,0,0,.29-.12l.89-.89a4.19,4.19,0,0,0,0-5.9h0l-.58-.58A5.8,5.8,0,0,1,37.72,6.8a.42.42,0,0,0,0-.83Z" transform="translate(-7.37 -5.83)"/></svg>