<svg id="Layer_1" data-name="Layer 1" xmlns="http://www.w3.org/2000/svg" width="16.01" height="33.84" viewBox="0 0 16.01 33.84"><defs><style>.cls-1{fill:#e90000;}.cls-2{fill:#00a400;}</style></defs><path class="cls-1" d="M30.46,38.87a15,15,0,0,1-5.07-3.35,15.21,15.21,0,0,1,0-21.48l.2-.2a.43.43,0,0,0,.1-.42l-.3-.89a.41.41,0,0,0-.39-.28H21.87V9.12a.41.41,0,0,0-.29-.39l-.88-.3a.43.43,0,0,0-.43.1l-.19.2A18.25,18.25,0,0,0,30.25,39.67h.06a.42.42,0,0,0,.4-.3A.42.42,0,0,0,30.46,38.87Z" transform="translate(-14.74 -5.83)"/><path class="cls-2" d="M30.34,6A6.66,6.66,0,0,0,25.9,7.66l-.61-.61a4.15,4.15,0,0,0-2.95-1.22h0a4.13,4.13,0,0,0-2.95,1.22l-.89.89a.43.43,0,0,0-.11.39.4.4,0,0,0,.27.29l2.38.8v3.24a.42.42,0,0,0,.12.3.45.45,0,0,0,.29.12H24.7l.79,2.37a.44.44,0,0,0,.3.28h.1a.47.47,0,0,0,.29-.12l.88-.89a4.17,4.17,0,0,0,0-5.9h0l-.58-.58A5.82,5.82,0,0,1,30.34,6.8a.42.42,0,1,0,0-.83Z" transform="translate(-14.74 -5.83)"/></svg>