<?xml version="1.0" standalone="no"?>
<!DOCTYPE svg PUBLIC "-//W3C//DTD SVG 20010904//EN"
 "http://www.w3.org/TR/2001/REC-SVG-20010904/DTD/svg10.dtd">
<svg version="1.0" xmlns="http://www.w3.org/2000/svg"
 width="512.000000pt" height="512.000000pt" viewBox="0 0 512.000000 512.000000"
 preserveAspectRatio="xMidYMid meet">

<g transform="translate(0.000000,512.000000) scale(0.100000,-0.100000)"
fill="#000000" stroke="none">
<path d="M3465 5105 c-208 -45 -441 -172 -584 -317 -218 -222 -331 -489 -331
-782 l0 -69 113 6 c218 12 369 80 540 246 251 243 376 512 377 814 l0 117 -27
-1 c-16 0 -55 -7 -88 -14z"/>
<path d="M3305 3865 c-112 -20 -237 -59 -441 -137 -183 -69 -192 -72 -279 -72
-83 0 -99 3 -200 43 -357 141 -506 177 -705 168 -179 -8 -291 -40 -474 -135
-360 -185 -622 -571 -707 -1038 -32 -174 -32 -499 0 -704 91 -590 298 -1076
653 -1537 277 -359 507 -493 760 -442 73 14 129 32 301 95 376 138 512 136
920 -15 170 -63 251 -81 369 -81 274 0 453 135 751 569 161 235 292 483 366
693 l30 87 -67 37 c-237 132 -393 284 -495 482 -127 246 -160 567 -86 847 25
97 74 204 133 293 59 89 199 229 297 298 64 45 77 59 70 72 -40 73 -170 205
-266 272 -143 98 -331 172 -519 205 -106 18 -313 18 -411 0z"/>
</g>
</svg>
